<svg width="893" height="580" viewBox="0 0 893 580" fill="none" xmlns="http://www.w3.org/2000/svg">
<g clip-path="url(#clip0)">
<path d="M683.656 548.528L730.114 479.44L683.751 555.96L683.848 563.734C680.456 563.76 677.098 563.704 673.772 563.565L676.076 463.634L676.013 462.863L676.098 462.714L676.318 453.271L625.442 379.404L676.258 446.204L676.439 448.2L678.179 372.699L634.235 296.115L678.304 359.435L677.844 203.016L677.845 202.495L677.86 203.007L680.777 326.287L720.827 276.211L680.909 336.907L681.783 404.441L718.636 338.53L681.918 414.37L682.405 451.922L736 360.109L682.568 465.023L683.656 548.528Z" fill="#A2C8A1"/>
<path d="M400.214 546.032L446.672 476.945L400.309 553.465L400.406 561.239C397.015 561.265 393.656 561.208 390.33 561.069L392.634 461.139L392.571 460.368L392.656 460.219L392.877 450.776L342 376.909L392.817 443.709L392.997 445.705L394.737 370.203L350.794 293.62L394.863 356.94L394.403 200.521L394.404 200L394.419 200.512L397.336 323.792L437.385 273.715L397.467 334.412L398.341 401.946L435.195 336.035L398.476 411.875L398.963 449.427L452.558 357.614L399.126 462.528L400.214 546.032Z" fill="#A2C8A1"/>
<path d="M862.008 3H584V379.039H862.008V3Z" fill="#E6E6E6"/>
<path d="M852.211 16.2509H593.796V365.789H852.211V16.2509Z" fill="white"/>
<path d="M818.245 77.5588H628.591C627.055 77.5568 625.582 76.9452 624.497 75.8582C623.411 74.7712 622.802 73.2978 622.802 71.7616C622.802 70.2254 623.411 68.7519 624.497 67.665C625.582 66.578 627.055 65.9663 628.591 65.9643H818.245C819.007 65.9633 819.761 66.1125 820.466 66.4034C821.17 66.6943 821.81 67.1212 822.349 67.6596C822.888 68.198 823.316 68.8374 823.608 69.5413C823.9 70.2451 824.05 70.9996 824.05 71.7616C824.05 72.5235 823.9 73.278 823.608 73.9818C823.316 74.6857 822.888 75.3251 822.349 75.8636C821.81 76.402 821.17 76.8288 820.466 77.1197C819.761 77.4106 819.007 77.5598 818.245 77.5588V77.5588Z" fill="#E6E6E6"/>
<path d="M818.245 137.188H628.591C627.055 137.186 625.582 136.574 624.497 135.487C623.411 134.4 622.802 132.927 622.802 131.391C622.802 129.854 623.411 128.381 624.497 127.294C625.582 126.207 627.055 125.595 628.591 125.593H818.245C819.007 125.592 819.761 125.742 820.466 126.032C821.17 126.323 821.81 126.75 822.349 127.289C822.888 127.827 823.316 128.466 823.608 129.17C823.9 129.874 824.05 130.629 824.05 131.391C824.05 132.153 823.9 132.907 823.608 133.611C823.316 134.315 822.888 134.954 822.349 135.493C821.81 136.031 821.17 136.458 820.466 136.749C819.761 137.04 819.007 137.189 818.245 137.188V137.188Z" fill="#E6E6E6"/>
<path d="M818.245 196.817H628.591C627.055 196.815 625.582 196.203 624.497 195.116C623.411 194.029 622.802 192.556 622.802 191.02C622.802 189.483 623.411 188.01 624.497 186.923C625.582 185.836 627.055 185.224 628.591 185.222H818.245C819.007 185.221 819.761 185.371 820.466 185.662C821.17 185.952 821.81 186.379 822.349 186.918C822.888 187.456 823.316 188.096 823.608 188.799C823.9 189.503 824.05 190.258 824.05 191.02C824.05 191.782 823.9 192.536 823.608 193.24C823.316 193.944 822.888 194.583 822.349 195.122C821.81 195.66 821.17 196.087 820.466 196.378C819.761 196.669 819.007 196.818 818.245 196.817V196.817Z" fill="#E6E6E6"/>
<path d="M818.245 256.446H628.591C627.055 256.444 625.582 255.832 624.497 254.745C623.411 253.658 622.802 252.185 622.802 250.649C622.802 249.113 623.411 247.639 624.497 246.552C625.582 245.465 627.055 244.854 628.591 244.852H818.245C819.007 244.851 819.761 245 820.466 245.291C821.17 245.582 821.81 246.008 822.349 246.547C822.888 247.085 823.316 247.725 823.608 248.429C823.9 249.132 824.05 249.887 824.05 250.649C824.05 251.411 823.9 252.165 823.608 252.869C823.316 253.573 822.888 254.212 822.349 254.751C821.81 255.289 821.17 255.716 820.466 256.007C819.761 256.298 819.007 256.447 818.245 256.446V256.446Z" fill="#E6E6E6"/>
<path d="M818.245 316.075H628.591C627.055 316.073 625.582 315.462 624.497 314.375C623.411 313.288 622.802 311.814 622.802 310.278C622.802 308.742 623.411 307.268 624.497 306.181C625.582 305.094 627.055 304.483 628.591 304.481H818.245C819.007 304.48 819.761 304.629 820.466 304.92C821.17 305.211 821.81 305.638 822.349 306.176C822.888 306.714 823.316 307.354 823.608 308.058C823.9 308.762 824.05 309.516 824.05 310.278C824.05 311.04 823.9 311.794 823.608 312.498C823.316 313.202 822.888 313.841 822.349 314.38C821.81 314.918 821.17 315.345 820.466 315.636C819.761 315.927 819.007 316.076 818.245 316.075V316.075Z" fill="#E6E6E6"/>
<path d="M785.118 77.5588H627.763C627.001 77.5598 626.246 77.4106 625.542 77.1197C624.838 76.8288 624.198 76.402 623.659 75.8636C623.12 75.3251 622.692 74.6857 622.4 73.9818C622.108 73.278 621.958 72.5235 621.958 71.7616C621.958 70.9996 622.108 70.2451 622.4 69.5413C622.692 68.8374 623.12 68.198 623.659 67.6596C624.198 67.1212 624.838 66.6943 625.542 66.4034C626.246 66.1125 627.001 65.9633 627.763 65.9643H785.118C786.654 65.9663 788.126 66.578 789.212 67.665C790.298 68.7519 790.907 70.2254 790.907 71.7616C790.907 73.2978 790.298 74.7712 789.212 75.8582C788.126 76.9452 786.654 77.5568 785.118 77.5588V77.5588Z" fill="#F9A826"/>
<path d="M736.255 137.188H627.763C626.225 137.188 624.751 136.577 623.664 135.49C622.577 134.403 621.966 132.928 621.966 131.391C621.966 129.853 622.577 128.379 623.664 127.291C624.751 126.204 626.225 125.593 627.763 125.593H736.255C737.017 125.592 737.771 125.742 738.476 126.032C739.18 126.323 739.82 126.75 740.359 127.289C740.898 127.827 741.326 128.466 741.618 129.17C741.91 129.874 742.06 130.629 742.06 131.391C742.06 132.153 741.91 132.907 741.618 133.611C741.326 134.315 740.898 134.954 740.359 135.493C739.82 136.031 739.18 136.458 738.476 136.749C737.771 137.04 737.017 137.189 736.255 137.188V137.188Z" fill="#F9A826"/>
<path d="M676.626 196.817H627.763C627.001 196.818 626.246 196.669 625.542 196.378C624.838 196.087 624.198 195.66 623.659 195.122C623.12 194.583 622.692 193.944 622.4 193.24C622.108 192.536 621.958 191.782 621.958 191.02C621.958 190.258 622.108 189.503 622.4 188.799C622.692 188.096 623.12 187.456 623.659 186.918C624.198 186.379 624.838 185.952 625.542 185.662C626.246 185.371 627.001 185.221 627.763 185.222H676.626C678.162 185.224 679.635 185.836 680.72 186.923C681.806 188.01 682.415 189.483 682.415 191.02C682.415 192.556 681.806 194.029 680.72 195.116C679.635 196.203 678.162 196.815 676.626 196.817Z" fill="#F9A826"/>
<path d="M800.025 256.446H627.763C626.225 256.446 624.751 255.835 623.664 254.748C622.577 253.661 621.966 252.186 621.966 250.649C621.966 249.111 622.577 247.637 623.664 246.55C624.751 245.462 626.225 244.852 627.763 244.852H800.025C801.562 244.852 803.037 245.462 804.124 246.55C805.211 247.637 805.822 249.111 805.822 250.649C805.822 252.186 805.211 253.661 804.124 254.748C803.037 255.835 801.562 256.446 800.025 256.446Z" fill="#F9A826"/>
<path d="M761.928 316.075H627.763C627.001 316.076 626.246 315.927 625.542 315.636C624.838 315.345 624.198 314.918 623.659 314.38C623.12 313.841 622.692 313.202 622.4 312.498C622.108 311.794 621.958 311.04 621.958 310.278C621.958 309.516 622.108 308.762 622.4 308.058C622.692 307.354 623.12 306.714 623.659 306.176C624.198 305.638 624.838 305.211 625.542 304.92C626.246 304.629 627.001 304.48 627.763 304.481H761.928C762.69 304.48 763.445 304.629 764.149 304.92C764.854 305.211 765.494 305.638 766.033 306.176C766.572 306.714 767 307.354 767.291 308.058C767.583 308.762 767.733 309.516 767.733 310.278C767.733 311.04 767.583 311.794 767.291 312.498C767 313.202 766.572 313.841 766.033 314.38C765.494 314.918 764.854 315.345 764.149 315.636C763.445 315.927 762.69 316.076 761.928 316.075V316.075Z" fill="#F9A826"/>
<path d="M888 563.74H0V565.74H888V563.74Z" fill="#3F3D56"/>
<path d="M505.988 270.907C505.988 270.907 499.702 224.814 489.227 237.385C478.751 249.956 489.227 268.812 489.227 268.812L497.607 279.288L505.988 273.003V270.907Z" fill="#9F616A"/>
<path d="M531.13 285.574C531.13 285.574 510.178 262.527 505.988 266.717C501.798 270.907 489.227 273.003 491.322 281.383C493.417 289.764 537.415 317.001 537.415 317.001L531.13 285.574Z" fill="#F9A826"/>
<path opacity="0.1" d="M531.13 285.574C531.13 285.574 510.178 262.527 505.988 266.717C501.798 270.907 489.227 273.003 491.322 281.383C493.417 289.764 537.415 317.001 537.415 317.001L531.13 285.574Z" fill="black"/>
<path d="M650.554 283.478V300.24C650.554 300.24 652.649 337.952 640.078 335.857C627.507 333.762 633.793 302.335 633.793 302.335L635.888 283.478L650.554 283.478Z" fill="#9F616A"/>
<path d="M644.268 404.998C644.268 404.998 663.125 434.33 669.41 436.425C675.696 438.52 709.218 457.377 713.409 476.233L742.741 513.946L728.075 532.802C728.075 532.802 661.03 461.567 642.173 455.281C623.317 448.996 604.46 417.569 604.46 417.569L644.268 404.998Z" fill="#9F616A"/>
<path d="M495.512 356.809C495.512 356.809 455.704 363.094 461.99 388.236C468.275 413.378 529.035 465.757 529.035 465.757L531.13 478.328L554.177 482.518L564.652 472.043L562.557 465.757C562.557 465.757 537.415 442.71 535.32 434.33C533.225 425.949 510.178 392.427 499.702 390.332L514.369 381.951L495.512 356.809Z" fill="#9F616A"/>
<path d="M736.455 513.946C736.455 513.946 728.075 501.375 740.646 503.47C753.217 505.565 761.597 507.66 761.597 516.041C761.597 524.422 751.121 583.086 738.55 578.896C725.979 574.705 736.455 555.849 736.455 555.849C736.455 555.849 730.17 539.088 725.98 536.993C721.789 534.898 721.789 524.422 725.98 524.422C730.17 524.422 738.55 518.136 736.455 513.946Z" fill="#2F2E41"/>
<path d="M558.367 467.852C558.367 467.852 558.367 457.377 566.747 467.852C575.128 478.328 579.318 486.709 570.938 492.994C562.557 499.28 533.225 513.946 533.225 513.946C533.225 513.946 501.798 520.231 505.988 505.565C505.988 505.565 526.939 495.089 526.939 486.709C526.939 478.328 526.939 463.662 533.225 467.852C539.51 472.043 558.367 474.138 558.367 467.852Z" fill="#2F2E41"/>
<path d="M598.175 310.715C598.175 310.715 627.507 314.906 625.412 356.809C625.412 356.809 663.125 394.522 652.649 407.093C642.173 419.664 619.126 442.71 610.746 436.425C602.365 430.139 577.223 381.951 577.223 381.951C577.223 381.951 518.559 402.902 508.083 392.427C497.607 381.951 487.131 356.809 487.131 356.809L539.51 329.572L598.175 310.715Z" fill="#2F2E41"/>
<path d="M516.464 191.291C530.349 191.291 541.606 180.035 541.606 166.149C541.606 152.264 530.349 141.008 516.464 141.008C502.578 141.008 491.322 152.264 491.322 166.149C491.322 180.035 502.578 191.291 516.464 191.291Z" fill="#9F616A"/>
<path d="M535.32 168.245C535.32 168.245 549.986 191.291 554.177 193.387C558.367 195.482 524.844 216.433 524.844 216.433C524.844 216.433 524.844 189.196 514.368 182.911L535.32 168.245Z" fill="#9F616A"/>
<path d="M537.415 191.291C537.415 191.291 570.938 180.816 577.223 197.577C583.509 214.338 598.175 245.766 596.08 266.717C593.985 287.669 589.794 283.478 596.08 289.764C602.365 296.049 606.555 291.859 604.46 300.24C602.365 308.62 600.27 308.62 602.365 312.811C604.46 317.001 577.223 331.667 554.177 333.762L531.13 335.857C531.13 335.857 531.13 298.144 526.94 289.764C522.749 281.383 514.368 264.622 514.368 258.336V241.706C514.368 230.636 517.257 219.759 522.749 210.148V210.148C522.749 210.148 535.32 191.291 537.415 191.291Z" fill="#F9A826"/>
<path d="M562.557 199.672C562.557 199.672 640.078 205.957 648.459 226.909C656.839 247.861 661.03 289.764 652.649 289.764C644.268 289.764 633.793 293.954 631.697 289.764C629.602 285.574 621.222 243.67 619.126 243.67C617.031 243.67 554.177 237.385 554.177 237.385C554.177 237.385 526.939 203.862 562.557 199.672Z" fill="#F9A826"/>
<path d="M515.454 159.916C515.454 159.916 508.782 148.322 500.442 158.393C492.102 168.464 478.535 149.957 480.618 146.008C482.7 142.059 490.055 146.185 502.66 142.065C515.264 137.944 539.544 129.55 543.611 156.932C547.677 184.314 537.992 181.443 537.992 181.443C537.992 181.443 533.553 157.18 529.541 164.149L525.529 171.119L522.049 171.975L515.454 159.916Z" fill="#2F2E41"/>
</g>
<defs>
<clipPath id="clip0">
<rect width="892.35" height="579.11" fill="white"/>
</clipPath>
</defs>
</svg>
