<svg width="512" height="512" viewBox="0 0 512 512" fill="none" xmlns="http://www.w3.org/2000/svg">
<path d="M446 40H400V16C400 7.164 392.837 0 384 0C375.163 0 368 7.164 368 16V40H144V16C144 7.164 136.837 0 128 0C119.163 0 112 7.164 112 16V40H66C29.607 40 0 69.607 0 106V446C0 482.393 29.607 512 66 512H446C482.393 512 512 482.393 512 446V106C512 69.607 482.393 40 446 40ZM480 446C480 464.778 464.778 480 446 480H66C47.222 480 32 464.778 32 446V181C32 178.239 34.239 176 37 176H475C477.761 176 480 178.239 480 181V446Z" fill="#3F75FF" fill-opacity="0.76"/>
</svg>
