<svg width="738" height="434" viewBox="0 0 738 434" fill="none" xmlns="http://www.w3.org/2000/svg">
<ellipse cx="372.5" cy="217" rx="211.5" ry="217" fill="#E6E6E6"/>
<path opacity="0.1" d="M22.4164 321.587C31.1088 321.587 38.1555 319.024 38.1555 315.863C38.1555 312.702 31.1088 310.14 22.4164 310.14C13.7239 310.14 6.67722 312.702 6.67722 315.863C6.67722 319.024 13.7239 321.587 22.4164 321.587Z" fill="black"/>
<path d="M22.3864 315.863C22.3864 315.863 30.9391 284.8 20.7884 261.909C16.527 252.307 15.1287 241.532 17.083 231.114C18.0251 226.172 19.388 221.334 21.1546 216.659" stroke="#535461" stroke-width="2" stroke-miterlimit="10"/>
<path d="M14.3118 202.629C14.3118 206.471 20.989 217.613 20.989 217.613C20.989 217.613 27.6627 206.463 27.6627 202.629C27.6627 200.785 26.9592 199.015 25.707 197.711C24.4548 196.406 22.7564 195.674 20.9855 195.674C19.2146 195.674 17.5162 196.406 16.264 197.711C15.0118 199.015 14.3083 200.785 14.3083 202.629H14.3118Z" fill="#A1C8C6"/>
<path d="M2.95216 223.269C5.07679 226.453 17.17 231.921 17.17 231.921C17.17 231.921 16.9506 219.003 14.8259 215.834C13.7866 214.358 12.1914 213.333 10.3814 212.979C8.57134 212.625 6.68998 212.97 5.13937 213.94C3.58876 214.91 2.49189 216.428 2.08319 218.17C1.67448 219.912 1.98636 221.74 2.95216 223.262V223.269Z" fill="#A1C8C6"/>
<path d="M3.76672 259.586C7.14654 261.342 20.0316 260.13 20.0316 260.13C20.0316 260.13 13.3003 248.731 9.93825 246.986C9.13477 246.568 8.25934 246.318 7.36195 246.249C6.46456 246.18 5.56278 246.294 4.7081 246.584C3.85341 246.874 3.06256 247.335 2.3807 247.941C1.69884 248.546 1.13933 249.283 0.734101 250.111C0.328873 250.94 0.0858701 251.842 0.0189657 252.767C-0.0479387 253.691 0.0625663 254.621 0.344171 255.502C0.912898 257.281 2.14403 258.754 3.76672 259.597V259.586Z" fill="#A1C8C6"/>
<path d="M10.3203 286.719C13.2666 289.053 25.755 290.108 25.755 290.108C25.755 290.108 21.1589 277.609 18.2091 275.286C16.7946 274.165 15.0224 273.692 13.2825 273.971C11.5425 274.25 9.97733 275.259 8.93121 276.775C7.88509 278.291 7.44374 280.19 7.70425 282.055C7.96476 283.92 8.90579 285.598 10.3203 286.719Z" fill="#A1C8C6"/>
<path d="M31.3299 233.222C28.6599 235.862 16.2161 238.598 16.2161 238.598C16.2161 238.598 19.2626 226.015 21.9326 223.375C23.2153 222.104 24.9412 221.404 26.7306 221.429C28.5201 221.454 30.2266 222.202 31.4746 223.508C32.7226 224.813 33.4099 226.571 33.3854 228.392C33.3609 230.214 32.6265 231.952 31.3439 233.222H31.3299Z" fill="#A1C8C6"/>
<path d="M38.2043 264.419C34.8245 266.058 21.9394 264.927 21.9394 264.927C21.9394 264.927 28.6707 254.288 32.0328 252.659C32.8363 252.269 33.7117 252.035 34.6091 251.971C35.5065 251.907 36.4083 252.013 37.2629 252.284C38.1176 252.555 38.9085 252.985 39.5903 253.55C40.2722 254.115 40.8317 254.803 41.2369 255.576C41.6422 256.349 41.8852 257.191 41.9521 258.054C42.019 258.917 41.9085 259.785 41.6269 260.607C41.3453 261.429 40.8981 262.19 40.3108 262.845C39.7236 263.501 39.0078 264.04 38.2043 264.429V264.419Z" fill="#A1C8C6"/>
<path d="M41.048 296.457C37.9467 298.654 24.8011 299.647 24.8011 299.647C24.8011 299.647 29.6391 287.883 32.744 285.697C34.233 284.641 36.0985 284.196 37.93 284.459C39.7615 284.722 41.4091 285.671 42.5103 287.098C43.6115 288.525 44.076 290.312 43.8018 292.068C43.5276 293.823 42.537 295.402 41.048 296.457Z" fill="#A1C8C6"/>
<path d="M221.185 160.384L182.364 155.353C180.789 155.151 179.577 154.552 179.619 154.03C179.689 153.507 181.012 153.263 182.622 153.493L221.359 159.102C222.425 159.255 223.233 159.659 223.184 160.015C223.136 160.349 222.244 160.523 221.185 160.384Z" fill="#916168"/>
<path d="M221.429 161.046L182.489 157.019C180.908 156.858 179.563 157.151 179.515 157.674C179.466 158.196 180.727 158.747 182.301 158.886L221.311 162.37C222.383 162.467 223.261 162.258 223.296 161.903C223.324 161.527 222.495 161.157 221.429 161.046Z" fill="#916168"/>
<path d="M495.129 176.01L532.919 186.226C534.451 186.638 535.572 187.395 535.46 187.907C535.321 188.416 533.976 188.479 532.413 188.034L494.784 177.257C493.748 176.961 493.002 176.452 493.098 176.106C493.192 175.782 494.099 175.729 495.129 176.01Z" fill="#916168"/>
<path d="M494.977 175.321L533.019 184.559C534.564 184.93 535.936 184.822 536.055 184.31C536.173 183.799 534.998 183.084 533.457 182.734L495.272 174.025C494.223 173.784 493.325 173.873 493.242 174.221C493.164 174.59 493.936 175.067 494.977 175.321Z" fill="#916168"/>
<path d="M71.3536 302.383H63.0711V377.758H71.3536V302.383Z" fill="#40414D"/>
<path d="M136.771 302.383H128.489V377.758H136.771V302.383Z" fill="#40414D"/>
<path d="M143.403 289.96C143.403 294.99 126.35 299.073 105.313 299.073C84.2756 299.073 68.0518 294.997 68.0518 289.96C68.0518 284.922 84.2756 280.846 105.313 280.846C126.35 280.846 143.403 284.95 143.403 289.96Z" fill="#A8A8A8"/>
<path d="M56.4464 289.953H143.396V297.547C143.396 299.488 142.625 301.348 141.254 302.72C139.882 304.092 138.022 304.863 136.082 304.863H68.9852C65.6597 304.863 62.4704 303.542 60.119 301.19C57.7675 298.838 56.4464 295.648 56.4464 292.322V289.953Z" fill="#40414D"/>
<path d="M41.6808 202.803L43.4747 202.398C44.7362 202.113 46.0591 202.341 47.1525 203.032C48.2459 203.723 49.0201 204.82 49.3049 206.082L71.0207 302.307L68.3027 302.921C66.0212 303.436 63.6285 303.023 61.651 301.774C59.6736 300.525 58.2734 298.541 57.7584 296.259L37.9844 208.637C37.8431 208.012 37.8267 207.364 37.9361 206.732C38.0456 206.099 38.2786 205.495 38.622 204.953C38.9654 204.411 39.4123 203.942 39.9372 203.573C40.4621 203.204 41.0546 202.942 41.6808 202.803Z" fill="#40414D"/>
<path d="M218.455 358.109C217.904 356.869 215.048 354.451 201.276 353.929C191.844 353.573 188.633 348.592 187.762 343.728C190.862 343.324 193.286 342.767 194.081 341.993C194.081 341.993 194.039 341.77 193.969 341.373L194.081 341.29C193.478 337.782 193.164 334.23 193.14 330.671C193.122 327.625 193.444 324.587 194.101 321.613C194.485 319.647 194.646 317.644 194.582 315.642C194.659 303.797 190.5 282.978 190.5 282.978L189.929 265.678C189.871 263.519 189.234 261.416 188.083 259.589C186.932 257.762 185.31 256.279 183.388 255.296C182.02 254.588 180.505 254.211 178.964 254.195C178.964 254.195 157.133 250.753 137.482 248.879C136.089 247.757 131.178 244.733 119.921 246.468L113.442 227.502C113.39 227.273 113.353 227.04 113.331 226.806C113.561 224.395 115.17 220.765 122.672 220.535L124.239 221.928C124.239 221.928 124.518 221.378 124.985 220.535C134.291 220.43 184.99 219.915 187.602 220.535C190.479 221.232 215.682 215.616 216.407 214.919C226.201 205.367 187.602 210 187.602 210C183.806 210.62 171.539 209.882 158.972 208.857C165.193 199.528 171.044 167.86 171.044 167.86C171.044 167.86 193.335 156.622 186.885 150.302C180.434 143.982 160.964 164.349 160.964 164.349C160.964 164.349 153.044 187.53 149.442 194.553C148.049 197.34 146.245 197.911 144.636 197.591C145.367 197.005 145.841 196.657 145.841 196.657C145.841 196.657 130 184.011 128.558 179.099C128.29 178.294 127.935 177.521 127.5 176.793C126.74 172.34 125.41 167.958 122.164 165.038C121.618 164.453 121.016 163.923 120.366 163.457C119.489 162.83 118.493 162.286 117.664 161.603C118.13 159.457 118.674 157.228 119.238 155.068C130.996 153.674 140.136 143.92 140.136 132.075C140.134 130.289 139.921 128.509 139.502 126.773C141.259 126.888 143.017 126.547 144.603 125.783C146.19 125.019 147.552 123.857 148.558 122.411C150.933 118.871 150.857 114.05 148.864 110.315C148.041 108.799 146.961 107.436 145.674 106.288C143.621 104.22 141.118 102.656 138.36 101.717C135.97 100.888 133.33 100.393 131.435 98.7699C130.589 97.6623 129.818 96.4984 129.13 95.2861C128.334 94.0959 127.399 93.0057 126.343 92.0392C122.86 88.451 117.942 86.2422 112.934 85.2668C106.831 84.0753 100.527 84.5004 94.3205 84.9254C92.0009 85.0856 89.2772 85.4967 88.2323 87.5173C87.4451 89.0362 87.9606 90.8547 87.8561 92.5479C87.5287 97.9338 81.3707 100.909 76.0139 102.212C70.657 103.515 64.2692 104.644 61.6849 109.368C59.3373 113.632 60.9883 118.802 61.7406 123.588C62.9936 131.993 61.1278 140.566 56.4952 147.689C54.1407 151.291 51.1035 154.496 49.2436 158.363C47.1831 162.674 46.7047 167.573 47.8922 172.201C48.2405 173.553 48.742 174.932 48.4913 176.312C48.2062 177.449 47.6465 178.5 46.8612 179.371C43.658 183.327 39.6715 186.578 35.1522 188.92C30.6328 191.261 25.6782 192.643 20.5994 192.978C21.0259 194.393 21.8594 195.65 22.9957 196.594C24.4394 198.022 26.123 199.185 27.9694 200.029C32.8339 202.469 37.9491 204.374 43.225 205.708C46.7776 206.607 50.4905 207.248 54.1059 206.635C57.7212 206.021 61.246 203.952 62.7298 200.677C63.5935 198.782 63.7189 196.636 64.4852 194.706C66.0107 190.846 69.7933 188.345 72.3498 185.035C71.4889 193.564 71.082 202.132 71.1308 210.704C71.1308 213.386 71.1308 215.804 71.1308 218.047C71.1308 227.725 70.4341 234.4 64.4364 246.489C63.7216 247.76 63.4084 249.217 63.5378 250.67C63.4074 251.454 63.4833 252.259 63.7581 253.006C64.0329 253.752 64.4972 254.414 65.1052 254.927C64.6871 257.338 64.4843 259.782 64.4991 262.229C64.4155 271.036 67.39 282.86 83.161 285.856L111.241 284.462C111.241 284.462 150.843 276.735 161.64 282.372C162.531 282.562 163.33 283.051 163.904 283.758C164.479 284.466 164.793 285.349 164.795 286.26C164.762 286.846 164.671 287.427 164.524 287.995C164.223 289.82 164.109 291.671 164.182 293.52C164.134 305.365 166.683 332.246 166.683 332.246V343.645C164.886 346.348 162.671 350.347 162.956 353.295C162.956 353.357 162.956 353.427 162.956 353.49C162.956 353.553 162.956 353.664 162.998 353.748C163.04 353.831 162.998 353.901 163.047 353.978C163.096 354.054 163.089 354.124 163.11 354.201C163.131 354.277 163.165 354.368 163.2 354.444C163.235 354.521 163.249 354.57 163.277 354.632C163.305 354.695 163.367 354.814 163.416 354.897L163.5 355.044C163.584 355.178 163.677 355.306 163.778 355.427C167.38 359.607 185.373 367.697 191.141 367.369C197.264 367.021 217.779 368.066 218.503 358.938C218.595 358.666 218.578 358.369 218.455 358.109V358.109Z" fill="url(#paint0_linear)"/>
<path d="M167.268 340.468C167.268 340.468 158.909 350.919 162.392 355.099C165.875 359.28 183.29 367.272 188.863 366.944C194.784 366.596 214.637 367.641 215.334 358.583C215.334 358.583 216.727 354.403 198.615 353.706C180.504 353.009 186.077 334.197 186.077 334.197L167.268 340.468Z" fill="#2F2E41"/>
<path opacity="0.1" d="M67.6547 252.676C67.6547 252.676 59.2955 281.243 84.3731 286.12L111.54 284.727C111.54 284.727 149.853 277.063 160.302 282.637C160.302 282.637 164.482 283.333 163.089 288.908C161.696 294.482 165.179 332.106 165.179 332.106V344.648C165.179 344.648 188.863 344.648 191.649 341.861C191.649 341.861 189.56 330.713 191.649 321.655C193.739 312.597 188.166 284.03 188.166 284.03L187.616 266.834C187.575 264.71 186.969 262.634 185.86 260.822C184.75 259.009 183.178 257.525 181.305 256.522C179.987 255.823 178.52 255.451 177.028 255.435C177.028 255.435 129.659 247.771 112.941 249.165C96.2222 250.558 67.6547 252.676 67.6547 252.676Z" fill="black"/>
<path d="M67.6547 251.98C67.6547 251.98 59.2955 280.547 84.3731 285.424L111.54 284.03C111.54 284.03 149.853 276.366 160.302 281.94C160.302 281.94 164.482 282.637 163.089 288.211C161.696 293.785 165.179 331.41 165.179 331.41V343.951C165.179 343.951 188.863 343.951 191.649 341.164C191.649 341.164 189.56 330.016 191.649 320.958C193.739 311.901 188.166 283.334 188.166 283.334L187.616 266.138C187.575 264.013 186.969 261.937 185.86 260.125C184.75 258.312 183.178 256.828 181.305 255.826C179.987 255.127 178.52 254.754 177.028 254.739C177.028 254.739 129.659 247.074 112.941 248.468C96.2222 249.861 67.6547 251.98 67.6547 251.98Z" fill="#2F2E41"/>
<path d="M139.404 195.542C139.404 195.542 144.977 202.51 148.46 195.542C151.943 188.575 159.606 165.582 159.606 165.582C159.606 165.582 178.414 145.376 184.683 151.647C190.953 157.917 169.358 169.066 169.358 169.066C169.358 169.066 161.696 211.568 154.73 212.264C147.764 212.961 137.315 212.264 137.315 212.264L133.832 204.6L139.404 195.542Z" fill="#F8BDC5"/>
<path opacity="0.05" d="M139.404 195.542C139.404 195.542 144.977 202.51 148.46 195.542C151.943 188.575 159.606 165.582 159.606 165.582C159.606 165.582 178.414 145.376 184.683 151.647C190.953 157.917 169.358 169.066 169.358 169.066C169.358 169.066 161.696 211.568 154.73 212.264C147.764 212.961 137.315 212.264 137.315 212.264L133.832 204.6L139.404 195.542Z" fill="black"/>
<path d="M114.327 160.704C114.327 160.704 126.866 175.336 128.259 180.214C129.652 185.091 144.977 197.632 144.977 197.632C144.977 197.632 133.832 205.994 135.921 210.174C138.011 214.355 121.293 196.239 121.293 196.239L101.788 167.672L114.327 160.704Z" fill="#DFE6F5"/>
<path opacity="0.1" d="M114.327 160.704C114.327 160.704 126.866 175.336 128.259 180.214C129.652 185.091 144.977 197.632 144.977 197.632C144.977 197.632 133.832 205.994 135.921 210.174C138.011 214.355 121.293 196.239 121.293 196.239L101.788 167.672L114.327 160.704Z" fill="black"/>
<path d="M122.686 143.982C122.686 143.982 116.417 164.188 116.417 171.853C116.417 179.517 89.9459 169.762 90.6425 165.582C91.3391 161.401 105.968 146.073 106.664 139.802C107.361 133.531 122.686 143.982 122.686 143.982Z" fill="#F8BDC5"/>
<path opacity="0.1" d="M101.788 157.917C101.788 157.917 77.4071 151.647 73.9241 187.181C70.4411 222.716 76.7105 226.896 66.2615 248.496C55.8125 270.095 137.315 251.283 137.315 251.283C137.315 251.283 133.135 246.405 119.9 248.496L113.63 229.683C113.63 229.683 111.54 221.322 123.383 221.322C135.225 221.322 129.652 196.936 129.652 196.936C129.652 196.936 123.383 176.033 119.9 173.943C116.417 171.853 110.147 159.311 101.788 157.917Z" fill="black"/>
<path d="M101.788 156.524C101.788 156.524 77.4071 150.253 73.9241 185.788C70.4411 221.322 76.7105 225.503 66.2615 247.102C55.8125 268.702 137.315 249.889 137.315 249.889C137.315 249.889 133.135 245.012 119.9 247.102L113.63 228.29C113.63 228.29 111.54 219.929 123.383 219.929C135.225 219.929 129.652 195.542 129.652 195.542C129.652 195.542 123.383 174.64 119.9 172.549C116.417 170.459 110.147 157.918 101.788 156.524Z" fill="#DFE6F5"/>
<path d="M126.169 206.69C126.169 206.69 177.021 212.264 185.38 210.871C185.38 210.871 222.718 206.272 213.244 215.748C212.547 216.445 188.166 222.019 185.38 221.322C182.594 220.625 123.383 221.322 123.383 221.322L122.686 214.355L126.169 206.69Z" fill="#F8BDC5"/>
<path opacity="0.1" d="M87.1595 189.271L124.079 222.716C124.079 222.716 131.045 208.781 133.135 208.781C135.225 208.781 108.057 167.672 108.057 167.672C108.057 167.672 101.092 159.311 96.9119 163.492C92.7323 167.672 80.1935 164.885 87.1595 189.271Z" fill="black"/>
<path d="M86.4629 187.878L123.383 221.322C123.383 221.322 130.349 207.387 132.438 207.387C134.528 207.387 107.361 166.279 107.361 166.279C107.361 166.279 100.395 157.917 96.2153 162.098C92.0357 166.279 79.4969 163.491 86.4629 187.878Z" fill="#DFE6F5"/>
<path d="M116.417 156.524C129.112 156.524 139.404 146.23 139.404 133.531C139.404 120.832 129.112 110.538 116.417 110.538C103.721 110.538 93.4289 120.832 93.4289 133.531C93.4289 146.23 103.721 156.524 116.417 156.524Z" fill="#F8BDC5"/>
<path opacity="0.1" d="M136.548 127.755C140.449 129.295 145.228 127.448 147.527 123.944C149.826 120.439 149.756 115.666 147.819 111.946C145.883 108.225 142.302 105.521 138.353 104.114C135.956 103.264 133.288 102.776 131.449 101.02C130.286 99.9126 129.596 98.4146 128.726 97.0629C125.472 91.9905 119.67 88.9945 113.77 87.8169C107.869 86.6394 101.767 87.0575 95.7625 87.4755C93.5195 87.6358 90.8863 88.0399 89.8693 90.0465C89.11 91.5515 89.6046 93.3561 89.5071 95.0353C89.1936 100.379 83.2377 103.341 78.0341 104.623C72.8305 105.905 66.7979 107.11 64.2623 111.82C61.9914 116.049 63.6144 121.178 64.318 125.929C65.5211 134.23 63.7229 142.687 59.2468 149.779C56.9689 153.354 54.0362 156.531 52.232 160.37C50.2362 164.66 49.7739 169.506 50.9224 174.096C51.2637 175.441 51.7444 176.807 51.5075 178.172C51.2345 179.295 50.6945 180.334 49.9332 181.203C46.8803 185.11 43.0418 188.333 38.6658 190.664C34.2897 192.995 29.4735 194.381 24.5282 194.734C25.3224 197.723 28.2133 199.611 30.9648 201.005C35.66 203.42 40.6082 205.308 45.7188 206.635C49.153 207.526 52.7475 208.161 56.2444 207.554C59.7414 206.948 63.1477 204.893 64.6036 201.646C65.4395 199.765 65.5649 197.64 66.3033 195.716C67.9682 191.404 72.4055 188.798 74.7879 184.833C77.0658 181.043 77.9505 180.597 78.5286 176.221C79.1068 171.846 80.3816 167.122 83.9761 164.551C87.7377 161.854 93.0318 162.37 97.2114 164.439C101.391 166.508 103.975 165.7 107.465 168.738C113.588 174.058 120.44 178.474 127.813 181.851C127.116 175.775 125.995 168.996 121.063 165.38C119.67 164.342 117.907 163.547 117.169 161.959C115.992 159.429 118.005 156.343 117.092 153.702C116.18 151.061 112.711 150.086 111.171 147.689C109.862 145.655 110.217 142.888 111.443 140.798C112.669 138.708 114.606 137.161 116.535 135.698C118.249 134.402 119.986 133.136 121.746 131.901C123.336 130.891 124.764 129.646 125.981 128.208C126.678 127.253 127.137 125.163 128.106 124.487C130.544 122.801 134.291 126.87 136.548 127.755Z" fill="black"/>
<path d="M135.852 127.058C139.753 128.598 144.531 126.752 146.83 123.247C149.129 119.742 149.059 114.969 147.123 111.249C145.186 107.528 141.606 104.825 137.656 103.417C135.26 102.567 132.592 102.079 130.753 100.324C129.589 99.2158 128.9 97.7178 128.029 96.3661C124.776 91.2937 118.973 88.2977 113.073 87.1202C107.173 85.9426 101.071 86.3607 95.0659 86.7787C92.8228 86.939 90.1897 87.3431 89.1727 89.3498C88.4134 90.8548 88.908 92.6594 88.8104 94.3385C88.497 99.6827 82.541 102.644 77.3375 103.926C72.1339 105.208 66.1013 106.413 63.5657 111.123C61.2948 115.353 62.9178 120.481 63.6214 125.233C64.8245 133.533 63.0262 141.99 58.5502 149.083C56.2723 152.657 53.3396 155.834 51.5354 159.673C49.5396 163.964 49.0773 168.809 50.2258 173.399C50.5671 174.744 51.0478 176.11 50.8109 177.475C50.5379 178.598 49.9979 179.638 49.2366 180.506C46.1837 184.414 42.3452 187.637 37.9692 189.967C33.5931 192.298 28.7769 193.685 23.8316 194.037C24.6258 197.026 27.5167 198.915 30.2682 200.308C34.9634 202.724 39.9116 204.612 45.0222 205.938C48.4564 206.83 52.0509 207.464 55.5478 206.858C59.0448 206.251 62.4511 204.196 63.907 200.949C64.7429 199.068 64.8683 196.943 65.6067 195.02C67.2716 190.707 71.7089 188.101 74.0913 184.136C76.3692 180.346 77.2539 179.9 77.832 175.525C78.4102 171.149 79.685 166.425 83.2794 163.854C87.0411 161.157 92.3352 161.673 96.5148 163.742C100.694 165.812 103.279 165.004 106.769 168.041C112.891 173.361 119.743 177.777 127.116 181.154C126.42 175.079 125.298 168.299 120.366 164.683C118.973 163.645 117.211 162.851 116.472 161.262C115.295 158.733 117.308 155.646 116.396 153.005C115.483 150.365 112.014 149.389 110.475 146.992C109.165 144.958 109.52 142.192 110.746 140.101C111.972 138.011 113.909 136.464 115.838 135.001C117.552 133.705 119.289 132.439 121.049 131.204C122.64 130.194 124.068 128.949 125.284 127.511C125.981 126.557 126.441 124.466 127.409 123.79C129.847 122.104 133.595 126.173 135.852 127.058Z" fill="#916168"/>
<g opacity="0.1">
<path opacity="0.1" d="M185.282 339.687C185.335 337.832 185.601 335.99 186.077 334.197L185.728 334.315C185.381 336.084 185.231 337.885 185.282 339.687Z" fill="white"/>
<path opacity="0.1" d="M188.863 365.551C183.29 365.878 165.875 357.886 162.392 353.706C161.935 353.14 161.654 352.452 161.584 351.727C161.482 352.315 161.501 352.917 161.64 353.497C161.779 354.077 162.035 354.622 162.392 355.099C165.875 359.28 183.29 367.272 188.863 366.944C194.784 366.596 214.637 367.641 215.334 358.583C215.386 358.333 215.351 358.073 215.236 357.845C213.641 366.192 194.638 365.209 188.863 365.551Z" fill="white"/>
</g>
<path opacity="0.1" d="M706.653 373.276C723.965 373.276 738 368.285 738 362.128C738 355.971 723.965 350.98 706.653 350.98C689.341 350.98 675.306 355.971 675.306 362.128C675.306 368.285 689.341 373.276 706.653 373.276Z" fill="black"/>
<path d="M705.385 363.71C705.385 363.71 713.744 335.254 703.811 314.31C699.58 305.551 698.304 295.657 700.175 286.112C701.098 281.586 702.434 277.155 704.166 272.874" stroke="#535461" stroke-width="2" stroke-miterlimit="10"/>
<path d="M697.98 259.642C697.98 263.126 704.292 273.243 704.292 273.243C704.292 273.243 710.603 263.133 710.603 259.642C710.603 257.967 709.937 256.36 708.753 255.176C707.569 253.992 705.963 253.326 704.288 253.326C702.613 253.326 701.007 253.992 699.823 255.176C698.639 256.36 697.973 257.967 697.973 259.642H697.98Z" fill="#A1C8C6"/>
<path d="M687.545 278.963C689.44 281.889 700.237 286.948 700.237 286.948C700.237 286.948 700.042 275.026 698.148 272.1C697.697 271.404 697.114 270.804 696.431 270.333C695.749 269.863 694.98 269.532 694.17 269.358C693.359 269.185 692.523 269.173 691.708 269.323C690.892 269.473 690.115 269.782 689.419 270.233C688.723 270.683 688.123 271.267 687.653 271.949C687.183 272.632 686.851 273.4 686.678 274.211C686.505 275.022 686.493 275.859 686.643 276.674C686.793 277.489 687.102 278.267 687.552 278.963H687.545Z" fill="#A1C8C6"/>
<path d="M687.998 311.968C691.112 313.536 702.982 312.456 702.982 312.456C702.982 312.456 696.796 302.263 693.682 300.695C692.188 299.941 690.455 299.812 688.865 300.336C687.275 300.86 685.958 301.994 685.205 303.489C684.451 304.984 684.322 306.717 684.846 308.307C685.369 309.898 686.503 311.214 687.998 311.968Z" fill="#A1C8C6"/>
<path d="M693.968 336.871C696.754 338.961 708.652 339.88 708.652 339.88C708.652 339.88 704.278 328.788 701.477 326.719C700.131 325.723 698.445 325.302 696.789 325.55C695.133 325.798 693.644 326.693 692.648 328.039C691.652 329.385 691.232 331.072 691.479 332.728C691.727 334.384 692.622 335.875 693.968 336.871Z" fill="#A1C8C6"/>
<path d="M713.487 287.624C710.986 290.056 699.332 292.571 699.332 292.571C699.332 292.571 702.188 280.998 704.689 278.566C705.889 277.399 707.505 276.757 709.179 276.781C710.853 276.805 712.449 277.494 713.616 278.695C714.782 279.896 715.424 281.512 715.4 283.186C715.376 284.861 714.688 286.457 713.487 287.624Z" fill="#A1C8C6"/>
<path d="M720.097 316.825C716.984 318.393 705.114 317.313 705.114 317.313C705.114 317.313 711.299 307.119 714.413 305.586C715.908 304.832 717.641 304.703 719.23 305.227C720.82 305.751 722.137 306.885 722.891 308.38C723.645 309.875 723.774 311.608 723.25 313.199C722.726 314.789 721.592 316.106 720.097 316.86V316.825Z" fill="#A1C8C6"/>
<path d="M722.626 346.096C719.84 348.186 707.942 349.106 707.942 349.106C707.942 349.106 712.316 338.013 715.117 335.944C716.463 334.948 718.149 334.527 719.805 334.775C721.461 335.023 722.95 335.918 723.946 337.264C724.942 338.61 725.362 340.297 725.115 341.953C724.867 343.609 723.972 345.1 722.626 346.096Z" fill="#A1C8C6"/>
<path d="M178.148 221.428H569.7C576.976 221.428 583.954 223.025 589.098 225.868C594.243 228.711 597.133 232.566 597.133 236.587V238.598H150.714V236.587C150.714 232.566 153.605 228.711 158.749 225.868C163.894 223.025 170.872 221.428 178.148 221.428Z" fill="#8E8E8E"/>
<path d="M650.618 379.377H658.901V304.002H650.618V379.377Z" fill="#40414D"/>
<path d="M585.201 379.377H593.483V304.002H585.201V379.377Z" fill="#40414D"/>
<path d="M578.583 291.578C578.583 296.609 595.636 300.692 616.673 300.692C637.71 300.692 653.934 296.616 653.934 291.578C653.934 286.541 637.703 282.444 616.673 282.444C595.643 282.444 578.583 286.548 578.583 291.578Z" fill="#A8A8A8"/>
<path d="M652.987 306.489H585.89C583.951 306.489 582.09 305.718 580.718 304.346C579.347 302.974 578.576 301.113 578.576 299.173V291.579H665.526V293.947C665.526 297.274 664.205 300.464 661.853 302.816C659.502 305.168 656.312 306.489 652.987 306.489Z" fill="#40414D"/>
<path d="M653.682 304.539L650.964 303.925L672.683 207.686C672.967 206.424 673.742 205.327 674.835 204.637C675.928 203.946 677.251 203.718 678.513 204.003L680.307 204.408C681.568 204.692 682.665 205.467 683.356 206.56C684.046 207.654 684.274 208.977 683.989 210.239L664.212 297.874C663.698 300.154 662.3 302.136 660.326 303.386C658.351 304.635 655.962 305.05 653.682 304.539Z" fill="#40414D"/>
<path d="M656.63 262.238L659.075 261.465C659.075 261.465 654.896 233.539 654.937 208.511C654.937 207.814 654.937 207.069 654.937 206.351C654.986 204.791 655.042 203.244 655.118 201.732C655.216 199.795 655.237 197.948 655.223 196.158C655.453 172.057 645.958 161.877 645.958 161.877C645.958 161.877 634.813 145.977 628.132 142.884C627.554 141.072 626.892 138.745 626.307 136.042C626.523 135.895 626.732 135.749 626.934 135.596C629.693 133.549 632.333 131.346 634.84 128.997C638.268 125.785 641.556 121.87 641.375 117.452C641.393 117.022 641.379 116.591 641.333 116.163C640.699 110.833 635.161 106.82 632.925 101.768C631.044 97.5251 631.608 92.8011 629.964 88.4951C628.32 84.1892 622.58 80.1828 618.247 82.4473C616.652 83.2834 615.691 84.7605 614.36 85.8823C611.058 88.6693 605.736 88.9271 601.223 87.659C596.709 86.3909 595.371 81.221 589.06 81.207C589.62 81.395 590.156 81.65 590.655 81.9665C590.128 81.8777 589.594 81.8311 589.06 81.8272C590.344 82.2334 591.482 83.0031 592.338 84.043C593.193 85.083 593.729 86.3487 593.88 87.6869C593.871 87.855 593.852 88.0224 593.825 88.1885C591.303 89.5472 587.987 88.7738 584.964 88.725C581.941 88.6763 578.499 90.2022 578.799 92.6756C578.748 92.9567 578.748 93.2446 578.799 93.5257C579.196 95.3999 581.704 96.8144 582.01 98.5493C582.01 98.5981 582.01 98.6399 582.01 98.6886C576.416 101.485 570.363 103.25 564.143 103.9C563.941 103.9 564.031 104.144 564.324 104.5H564.143C563.007 104.618 570.948 110.896 571.854 111.307C575.17 112.812 579.133 113.92 582.644 115.076L582.951 115.174C581.768 117.923 581.159 120.884 581.16 123.876C581.16 134.606 588.872 143.622 599.314 146.173C601.264 148.451 603.312 150.952 605.179 153.44H605.047C605.047 153.44 593.044 169.409 593.428 193.259C593.394 196.248 593.552 199.237 593.901 202.206C586.183 201.767 569.597 199.732 556.981 190.493C539.964 178.042 520.981 181.777 524.938 189.246C528.895 196.715 549.159 202.937 552.426 203.564C552.732 203.62 553.443 203.787 554.46 204.038C550.433 204.798 547.675 206.128 547.842 207.919C548.169 211.34 565.515 222.237 575.985 222.857C582.902 223.269 591.226 225.401 597.795 227.275C598.429 241.593 594.967 245.885 594.967 245.885C594.967 245.885 595.998 246.519 597.705 247.418L596.973 249.508C592.724 251.961 587.486 254.518 582.721 255.549C576.649 256.797 570.747 258.762 565.139 261.402L541.573 272.794C539.468 273.771 537.647 275.268 536.282 277.144C534.917 279.02 534.053 281.214 533.771 283.517C533.255 288.345 534.711 294.379 542.597 299.166C543.084 303.089 545.481 307.667 551.771 311.861C563.961 319.971 595.998 344.267 600.359 347.584C600.442 353.513 599.662 365.407 592.348 367.26C583.181 369.587 590.558 378.408 597.969 378.06C599.728 378.725 601.642 378.866 603.479 378.464C611.337 376.597 640.135 366.619 642.099 351.695C642.181 351.048 642.218 350.396 642.21 349.744C642.325 347.199 641.69 344.677 640.385 342.49C640.693 343.165 640.942 343.864 641.131 344.581C638.748 339.146 632.946 335.732 628.432 333.809C628.432 333.76 628.432 333.704 628.432 333.656C627.735 333.384 627.038 333.161 626.467 332.959C626.479 332.555 626.448 332.151 626.377 331.753L581.216 300.629C581.216 300.629 600.853 284.444 621.145 286.938C641.437 289.432 644.669 285.747 644.669 285.747C644.669 285.747 655.077 275.846 656.122 264.447L656.776 264.273C656.776 264.273 656.728 263.555 656.63 262.238Z" fill="url(#paint1_linear)"/>
<path d="M601.48 343.306C601.48 343.306 603.326 363.63 594.089 366.096C584.853 368.563 593.476 378.415 600.86 376.548C608.244 374.68 635.349 364.842 637.195 350.071C639.041 335.3 618.721 330.36 618.721 330.36L601.48 343.306Z" fill="#2F2E41"/>
<path opacity="0.05" d="M601.48 343.306C601.48 343.306 603.326 363.63 594.089 366.096C584.853 368.563 593.476 378.415 600.86 376.548C608.244 374.68 635.349 364.842 637.195 350.071C639.041 335.3 618.721 330.36 618.721 330.36L601.48 343.306Z" fill="#5F2020"/>
<path d="M605.193 343.919C605.193 343.919 607.039 364.243 597.802 366.71C588.565 369.176 597.189 379.028 604.573 377.161C611.957 375.294 639.062 365.455 640.908 350.684C642.754 335.913 622.434 330.973 622.434 330.973L605.193 343.919Z" fill="#2F2E41"/>
<path opacity="0.1" d="M624.28 331.6L607.053 344.539C607.053 344.539 607.13 345.417 607.178 346.817C613.685 345.034 627.86 340.296 628.076 332.882C626.838 332.379 625.57 331.951 624.28 331.6Z" fill="black"/>
<path d="M613.504 154.506H606.113V160.052H613.504V154.506Z" fill="#A0616A"/>
<path d="M606.426 244.122C606.426 244.122 594.688 253.347 585.048 255.535C579.315 256.776 573.758 258.721 568.503 261.325L546.331 272.599C544.317 273.612 542.59 275.114 541.307 276.968C540.024 278.822 539.227 280.968 538.988 283.21C538.354 289.481 540.876 297.731 555.923 302.636L603.34 342.058L618.122 329.74L567.626 290.944L606.426 266.92V244.122Z" fill="#2F2E41"/>
<path opacity="0.1" d="M606.426 244.122C606.426 244.122 594.688 253.347 585.048 255.535C579.315 256.776 573.758 258.721 568.503 261.325L546.331 272.599C544.317 273.612 542.59 275.114 541.307 276.968C540.024 278.822 539.227 280.968 538.988 283.21C538.354 289.481 540.876 297.731 555.923 302.636L603.34 342.058L618.122 329.74L567.626 290.944L606.426 266.92V244.122Z" fill="black"/>
<path d="M599.648 202.861C599.648 202.861 576.862 203.474 560.848 191.155C544.833 178.836 526.979 182.529 530.671 189.922C534.363 197.314 553.457 203.474 556.536 204.087C559.615 204.7 603.953 217.026 603.953 217.026L599.648 202.861Z" fill="#A0616A"/>
<path opacity="0.05" d="M599.648 202.861C599.648 202.861 576.862 203.474 560.848 191.155C544.833 178.836 526.979 182.529 530.671 189.922C534.363 197.314 553.457 203.474 556.536 204.087C559.615 204.7 603.953 217.026 603.953 217.026L599.648 202.861Z" fill="black"/>
<path d="M602.114 238.59L594.723 260.768C594.723 260.768 553.157 286.332 549.765 289.718C547.132 292.352 543.607 302.657 555.923 311.276C568.239 319.895 602.107 347.005 602.107 347.005C602.107 347.005 627.972 341.431 626.126 330.98L583.633 300.183C583.633 300.183 602.107 284.158 621.201 286.632C645.028 289.718 643.374 285.398 643.374 285.398C643.374 285.398 658.156 270.599 653.224 256.455C648.292 242.311 602.114 238.59 602.114 238.59Z" fill="#2F2E41"/>
<path d="M592.877 138.216C592.877 138.216 613.817 161.006 612.584 167.779C611.351 174.551 629.212 148.068 629.212 148.068C629.212 148.068 623.639 134.516 624.9 119.731L592.877 138.216Z" fill="#A0616A"/>
<path opacity="0.1" d="M611.149 159.118C612.577 157.61 614.082 156.175 615.656 154.819C618.807 152.235 621.698 149.348 624.287 146.2C628.599 140.626 644.607 164.678 644.607 164.678C644.607 164.678 654.457 175.764 653.231 202.254C652.005 228.745 654.77 264.161 654.77 264.161L651.043 265.199C647.904 266.247 644.564 266.55 641.288 266.085C638.012 265.619 634.889 264.398 632.165 262.517C627.247 259.117 621.02 255.549 616.283 255.229C607.046 254.616 598.729 249.376 598.729 249.376C598.729 249.376 602.734 239.831 596.576 209.027C590.418 178.223 606.113 156.331 606.113 156.331C606.113 156.331 607.353 163.034 611.149 159.118Z" fill="black"/>
<path d="M656.923 261.381L653.231 262.614L651.036 263.346C647.897 264.394 644.558 264.698 641.281 264.232C638.005 263.766 634.881 262.545 632.159 260.663C627.247 257.27 621.013 253.696 616.276 253.375C607.053 252.755 596.604 245.983 596.604 245.983C596.604 245.983 602.762 237.977 596.604 207.173C590.446 176.37 606.148 154.506 606.148 154.506C606.148 154.506 607.387 161.174 611.184 157.251C612.609 155.744 614.111 154.311 615.684 152.959C618.835 150.374 621.726 147.488 624.315 144.34C628.627 138.766 644.635 162.818 644.635 162.818C644.635 162.818 654.485 173.903 653.259 200.394C653.126 203.181 653.07 206.052 653.063 208.957C652.973 233.748 656.923 261.381 656.923 261.381Z" fill="#8D8D8D"/>
<path opacity="0.1" d="M621.821 201.014L622.434 214.566C622.434 214.566 589.791 216.412 583.02 209.64C576.249 202.868 601.48 229.56 607.053 231.198C612.284 232.737 625.792 234.096 632.876 234.235C634.9 234.301 636.899 233.776 638.63 232.726C640.362 231.676 641.751 230.145 642.628 228.32C643.454 226.524 643.721 224.521 643.395 222.572C642.162 214.566 643.395 197.314 643.395 197.314L621.821 201.014Z" fill="black"/>
<path d="M621.821 199.781L622.434 213.333C622.434 213.333 589.791 215.179 583.02 208.407C576.249 201.634 551.75 203.132 552.231 208.407C552.537 211.793 568.859 222.572 578.702 223.192C588.544 223.812 601.48 228.327 607.053 229.964C612.285 231.504 625.792 232.863 632.876 233.002C634.9 233.067 636.899 232.543 638.63 231.493C640.362 230.443 641.751 228.912 642.628 227.087C643.454 225.291 643.721 223.288 643.395 221.339C642.162 213.333 643.395 196.081 643.395 196.081L621.821 199.781Z" fill="#A0616A"/>
<path opacity="0.1" d="M629.212 160.358C629.212 160.358 615.05 162.205 616.896 183.149C618.742 204.094 621.208 205.94 621.208 205.94C621.208 205.94 642.148 204.094 644.607 203.474C647.066 202.854 645.84 180.07 645.84 180.07C645.84 180.07 645.22 159.745 629.212 160.358Z" fill="black"/>
<path d="M629.212 159.745C629.212 159.745 615.05 161.592 616.896 182.536C618.742 203.481 621.208 205.327 621.208 205.327C621.208 205.327 642.148 203.481 644.607 202.861C647.066 202.241 645.84 179.457 645.84 179.457C645.84 179.457 645.22 159.118 629.212 159.745Z" fill="#8D8D8D"/>
<path opacity="0.1" d="M623.973 132.948C623.005 128.071 624.99 126.566 625.513 120.323L593.469 138.801C593.469 138.801 597.14 142.8 601.313 147.935C603.178 148.407 605.095 148.641 607.018 148.632C615.412 148.667 620.003 139.651 623.973 132.948Z" fill="black"/>
<path d="M606.419 148.04C619.003 148.04 629.205 137.836 629.205 125.249C629.205 112.662 619.003 102.458 606.419 102.458C593.835 102.458 583.633 112.662 583.633 125.249C583.633 137.836 593.835 148.04 606.419 148.04Z" fill="#A0616A"/>
<path opacity="0.1" d="M612.166 118.33C608.683 120.546 608.634 125.556 610.877 129.025C613.12 132.495 616.987 134.788 620.706 136.947C621.786 137.575 622.977 138.223 624.189 138.083C625.121 137.902 625.985 137.465 626.683 136.822C629.286 134.791 631.77 132.611 634.123 130.293C637.508 126.963 640.762 122.859 640.232 118.212C639.633 112.937 634.422 108.966 632.319 103.97C630.549 99.7895 631.079 95.1003 629.532 90.8292C627.986 86.5581 622.566 82.6075 618.512 84.8441C617.014 85.6662 616.109 87.1364 614.855 88.2442C611.748 90.9895 606.74 91.2612 602.49 90.007C598.241 88.7529 596.98 83.6317 591.052 83.6178C593.999 84.656 595.991 87.7286 595.538 90.5296C593.163 91.8743 590.042 91.1079 587.179 91.0591C584.316 91.0104 580.91 92.6129 581.404 95.1909C581.836 97.2812 584.852 98.8349 584.407 100.925C579.174 103.682 573.469 105.431 567.591 106.081C566.525 106.2 573.992 112.408 574.842 112.819C577.956 114.31 581.697 115.404 584.992 116.546C593.943 119.633 603.11 120.734 612.166 118.33Z" fill="black"/>
<path d="M612.166 117.71C608.683 119.926 608.634 124.935 610.877 128.405C613.12 131.875 616.987 134.167 620.706 136.327C621.786 136.954 622.977 137.602 624.189 137.463C625.121 137.281 625.985 136.845 626.683 136.202C629.286 134.17 631.77 131.991 634.123 129.673C637.508 126.343 640.762 122.239 640.232 117.592C639.633 112.317 634.422 108.346 632.319 103.35C630.549 99.1694 631.079 94.4803 629.532 90.2092C627.986 85.9381 622.566 81.9875 618.512 84.224C617.014 85.0462 616.109 86.5164 614.855 87.6242C611.748 90.3694 606.74 90.6412 602.49 89.387C598.241 88.1328 596.98 83.0117 591.052 82.9977C593.999 84.0359 595.991 87.1086 595.538 89.9096C593.163 91.2543 590.042 90.4879 587.179 90.4391C584.316 90.3903 580.91 91.9928 581.404 94.5708C581.836 96.6611 584.852 98.2149 584.407 100.305C579.174 103.062 573.469 104.811 567.591 105.461C566.525 105.58 573.992 111.788 574.842 112.199C577.956 113.69 581.697 114.784 584.992 115.926C593.943 119.02 603.11 120.1 612.166 117.71Z" fill="black"/>
<path opacity="0.1" d="M639.299 341.592C640.288 343.873 640.632 346.381 640.295 348.845C638.449 363.63 611.351 373.482 603.96 375.321C600.066 376.297 595.824 374.019 594.048 371.28C595.19 374.499 600.108 377.67 604.58 376.555C611.971 374.708 639.069 364.849 640.915 350.078C641.318 347.149 640.751 344.168 639.299 341.592Z" fill="white"/>
<defs>
<linearGradient id="paint0_linear" x1="75527.3" y1="203250" x2="75527.3" y2="88396.9" gradientUnits="userSpaceOnUse">
<stop stop-color="#808080" stop-opacity="0.25"/>
<stop offset="0.54" stop-color="#808080" stop-opacity="0.12"/>
<stop offset="1" stop-color="#808080" stop-opacity="0.1"/>
</linearGradient>
<linearGradient id="paint1_linear" x1="591.728" y1="378.722" x2="591.728" y2="81.207" gradientUnits="userSpaceOnUse">
<stop stop-color="#808080" stop-opacity="0.25"/>
<stop offset="0.54" stop-color="#808080" stop-opacity="0.12"/>
<stop offset="1" stop-color="#808080" stop-opacity="0.1"/>
</linearGradient>
</defs>
</svg>
