<svg width="1362" height="498" viewBox="0 0 1362 498" fill="none" xmlns="http://www.w3.org/2000/svg">
<ellipse cx="997" cy="227" rx="226" ry="227" fill="#E6E6E6"/>
<g clip-path="url(#clip0)">
<path d="M1025.23 435.744L1054.11 396.912L1025.29 439.921L1025.35 444.291C1023.25 444.305 1021.16 444.274 1019.09 444.196L1020.52 388.028L1020.48 387.594L1020.54 387.511L1020.67 382.204L989.054 340.685L1020.64 378.231L1020.75 379.353L1021.83 336.916L994.519 293.871L1021.91 329.461L1021.62 241.542L1021.62 241.25L1021.63 241.537L1023.45 310.829L1048.34 282.683L1023.53 316.798L1024.07 354.757L1046.97 317.711L1024.15 360.338L1024.46 381.445L1057.77 329.84L1024.56 388.808L1025.23 435.744Z" fill="#A2C8A1"/>
<path d="M852.733 392.908L881.607 354.076L852.792 397.086L852.853 401.455C850.745 401.47 848.657 401.438 846.59 401.359L848.022 345.192L847.983 344.759L851.956 338.609L848.173 339.367L816.553 297.849L848.136 335.395L848.248 336.517L849.329 294.08L822.019 251.035L849.408 286.625L849.122 198.707L849.122 198.414L849.132 198.702L850.945 267.993L875.835 239.847L851.026 273.963L851.569 311.921L874.474 274.875L851.653 317.502L851.956 338.609L885.265 287.004L852.057 345.973L852.733 392.908Z" fill="#A2C8A1"/>
<path d="M1139.74 87.6862H966.956V299.046H1139.74V87.6862Z" fill="#E6E6E6"/>
<path d="M1133.65 95.1341H973.045V291.599H1133.65V95.1341Z" fill="white"/>
<path d="M1112.54 129.593H994.67C993.715 129.592 992.8 129.249 992.125 128.638C991.45 128.027 991.072 127.198 991.072 126.335C991.072 125.472 991.45 124.643 992.125 124.032C992.8 123.421 993.715 123.078 994.67 123.076H1112.54C1113.01 123.076 1113.48 123.16 1113.92 123.323C1114.36 123.487 1114.76 123.727 1115.09 124.029C1115.43 124.332 1115.69 124.691 1115.87 125.087C1116.05 125.483 1116.15 125.907 1116.15 126.335C1116.15 126.763 1116.05 127.187 1115.87 127.583C1115.69 127.979 1115.43 128.338 1115.09 128.641C1114.76 128.943 1114.36 129.183 1113.92 129.347C1113.48 129.51 1113.01 129.594 1112.54 129.593Z" fill="#E6E6E6"/>
<path d="M1112.54 163.109H994.67C993.715 163.108 992.8 162.764 992.125 162.153C991.45 161.542 991.072 160.714 991.072 159.851C991.072 158.987 991.45 158.159 992.125 157.548C992.8 156.937 993.715 156.593 994.67 156.592H1112.54C1113.01 156.591 1113.48 156.676 1113.92 156.839C1114.36 157.002 1114.76 157.242 1115.09 157.545C1115.43 157.848 1115.69 158.207 1115.87 158.602C1116.05 158.998 1116.15 159.423 1116.15 159.851C1116.15 160.279 1116.05 160.703 1115.87 161.099C1115.69 161.494 1115.43 161.853 1115.09 162.156C1114.76 162.459 1114.36 162.699 1113.92 162.862C1113.48 163.026 1113.01 163.11 1112.54 163.109Z" fill="#E6E6E6"/>
<path d="M1112.54 196.625H994.67C993.715 196.624 992.8 196.28 992.125 195.669C991.45 195.058 991.072 194.23 991.072 193.366C991.072 192.503 991.45 191.675 992.125 191.064C992.8 190.453 993.715 190.109 994.67 190.108H1112.54C1113.01 190.107 1113.48 190.191 1113.92 190.355C1114.36 190.518 1114.76 190.758 1115.09 191.061C1115.43 191.363 1115.69 191.723 1115.87 192.118C1116.05 192.514 1116.15 192.938 1116.15 193.366C1116.15 193.795 1116.05 194.219 1115.87 194.614C1115.69 195.01 1115.43 195.369 1115.09 195.672C1114.76 195.974 1114.36 196.214 1113.92 196.378C1113.48 196.542 1113.01 196.625 1112.54 196.625Z" fill="#E6E6E6"/>
<path d="M1112.54 230.14H994.67C993.715 230.139 992.8 229.795 992.125 229.184C991.45 228.573 991.072 227.745 991.072 226.882C991.072 226.019 991.45 225.19 992.125 224.579C992.8 223.968 993.715 223.625 994.67 223.624H1112.54C1113.01 223.623 1113.48 223.707 1113.92 223.87C1114.36 224.034 1114.76 224.273 1115.09 224.576C1115.43 224.879 1115.69 225.239 1115.87 225.634C1116.05 226.029 1116.15 226.454 1116.15 226.882C1116.15 227.31 1116.05 227.734 1115.87 228.13C1115.69 228.526 1115.43 228.885 1115.09 229.188C1114.76 229.49 1114.36 229.73 1113.92 229.894C1113.48 230.057 1113.01 230.141 1112.54 230.14Z" fill="#E6E6E6"/>
<path d="M1112.54 263.656H994.67C993.715 263.655 992.8 263.311 992.125 262.7C991.45 262.089 991.072 261.261 991.072 260.398C991.072 259.534 991.45 258.706 992.125 258.095C992.8 257.484 993.715 257.14 994.67 257.139H1112.54C1113.01 257.139 1113.48 257.223 1113.92 257.386C1114.36 257.55 1114.76 257.79 1115.09 258.092C1115.43 258.394 1115.69 258.754 1115.87 259.15C1116.05 259.546 1116.15 259.969 1116.15 260.398C1116.15 260.826 1116.05 261.25 1115.87 261.645C1115.69 262.041 1115.43 262.4 1115.09 262.703C1114.76 263.006 1114.36 263.246 1113.92 263.409C1113.48 263.573 1113.01 263.657 1112.54 263.656Z" fill="#E6E6E6"/>
<path d="M1091.95 129.593H994.155C993.681 129.594 993.212 129.51 992.775 129.347C992.337 129.183 991.939 128.943 991.604 128.641C991.269 128.338 991.003 127.979 990.822 127.583C990.64 127.187 990.547 126.763 990.547 126.335C990.547 125.907 990.64 125.483 990.822 125.087C991.003 124.691 991.269 124.332 991.604 124.029C991.939 123.727 992.337 123.487 992.775 123.323C993.212 123.16 993.681 123.076 994.155 123.076H1091.95C1092.91 123.078 1093.82 123.421 1094.5 124.032C1095.17 124.643 1095.55 125.472 1095.55 126.335C1095.55 127.198 1095.17 128.027 1094.5 128.638C1093.82 129.249 1092.91 129.592 1091.95 129.593Z" fill="#A1C8C6"/>
<path d="M1061.58 163.109H994.155C993.199 163.109 992.283 162.766 991.608 162.155C990.932 161.544 990.552 160.715 990.552 159.851C990.552 158.986 990.932 158.158 991.608 157.546C992.283 156.935 993.199 156.592 994.155 156.592H1061.58C1062.06 156.591 1062.53 156.676 1062.96 156.839C1063.4 157.002 1063.8 157.242 1064.13 157.545C1064.47 157.848 1064.73 158.207 1064.92 158.602C1065.1 158.998 1065.19 159.423 1065.19 159.851C1065.19 160.279 1065.1 160.703 1064.92 161.099C1064.73 161.494 1064.47 161.853 1064.13 162.156C1063.8 162.459 1063.4 162.699 1062.96 162.862C1062.53 163.026 1062.06 163.11 1061.58 163.109Z" fill="#A1C8C6"/>
<path d="M1024.52 196.625H994.155C993.681 196.625 993.212 196.542 992.775 196.378C992.337 196.214 991.939 195.974 991.604 195.672C991.269 195.369 991.003 195.01 990.822 194.614C990.64 194.219 990.547 193.795 990.547 193.366C990.547 192.938 990.64 192.514 990.822 192.118C991.003 191.723 991.269 191.363 991.604 191.061C991.939 190.758 992.337 190.518 992.775 190.355C993.212 190.191 993.681 190.107 994.155 190.108H1024.52C1025.48 190.109 1026.39 190.453 1027.07 191.064C1027.74 191.675 1028.12 192.503 1028.12 193.366C1028.12 194.23 1027.74 195.058 1027.07 195.669C1026.39 196.28 1025.48 196.624 1024.52 196.625Z" fill="#A1C8C6"/>
<path d="M1101.22 230.14H994.155C993.199 230.14 992.283 229.797 991.608 229.186C990.932 228.575 990.552 227.746 990.552 226.882C990.552 226.018 990.932 225.189 991.608 224.578C992.283 223.967 993.199 223.624 994.155 223.624H1101.22C1102.17 223.624 1103.09 223.967 1103.76 224.578C1104.44 225.189 1104.82 226.018 1104.82 226.882C1104.82 227.746 1104.44 228.575 1103.76 229.186C1103.09 229.797 1102.17 230.14 1101.22 230.14Z" fill="#A1C8C6"/>
<path d="M1077.54 263.656H994.155C993.681 263.657 993.212 263.573 992.775 263.409C992.337 263.246 991.939 263.006 991.604 262.703C991.269 262.4 991.003 262.041 990.822 261.645C990.64 261.25 990.547 260.826 990.547 260.398C990.547 259.969 990.64 259.546 990.822 259.15C991.003 258.754 991.269 258.394 991.604 258.092C991.939 257.79 992.337 257.55 992.775 257.386C993.212 257.223 993.681 257.139 994.155 257.139H1077.54C1078.01 257.139 1078.48 257.223 1078.92 257.386C1079.36 257.55 1079.75 257.79 1080.09 258.092C1080.42 258.394 1080.69 258.754 1080.87 259.15C1081.05 259.546 1081.15 259.969 1081.15 260.398C1081.15 260.826 1081.05 261.25 1080.87 261.645C1080.69 262.041 1080.42 262.4 1080.09 262.703C1079.75 263.006 1079.36 263.246 1078.92 263.409C1078.48 263.573 1078.01 263.657 1077.54 263.656Z" fill="#A1C8C6"/>
<path d="M904.87 210.541C904.87 210.541 907.625 184.485 899.543 189.68C891.46 194.875 895.087 206.773 895.087 206.773L898.641 213.785L904.573 211.681L904.87 210.541Z" fill="#9F616A"/>
<path d="M917.911 222.46C917.911 222.46 908.578 206.64 905.464 208.262C902.35 209.884 894.493 209.053 894.564 213.939C894.636 218.826 917.234 240.538 917.234 240.538L917.911 222.46Z" fill="#2F2E41"/>
<path d="M990.029 240.044L987.653 249.16C987.653 249.16 983.565 270 976.302 266.889C969.039 263.779 977.276 247.672 977.276 247.672L981.209 237.744L990.029 240.044Z" fill="#9F616A"/>
<path d="M969.019 305.152C969.019 305.152 976.2 324.061 979.683 326.186C983.166 328.311 1000.65 343.823 1000.5 354.736L1012.79 379.846L1001.3 387.803C1001.3 387.803 971.078 338.547 960.629 332.171C950.18 325.797 943.296 305.747 943.296 305.747L969.019 305.152Z" fill="#9F616A"/>
<path d="M886.389 255.619C886.389 255.619 861.558 252.796 861.773 267.456C861.988 282.116 891.102 320.131 891.102 320.131L890.58 327.297L903.846 333.189L911.631 329.134L911.262 325.387C911.262 325.387 899.41 308.91 899.338 304.024C899.267 299.137 890.159 277.291 884.156 274.509L894.165 272.25L886.389 255.619Z" fill="#9F616A"/>
<path d="M1009.01 378.861C1009.01 378.861 1005.75 370.71 1013.02 373.82C1020.28 376.93 1025.02 379.384 1023.84 383.942C1022.65 388.5 1008.03 418.765 1001.06 414.515C994.096 410.265 1003.07 401.651 1003.07 401.651C1003.07 401.651 1001.67 391.55 999.444 389.754C997.221 387.957 998.706 382.259 1001.23 382.916C1003.75 383.573 1009.68 381.468 1009.01 378.861Z" fill="#2F2E41"/>
<path d="M908.445 325.869C908.445 325.869 909.931 320.172 913.485 327.183C917.04 334.195 918.372 339.41 912.441 341.515C906.509 343.62 886.789 346.997 886.789 346.997C886.789 346.997 866.998 345.489 871.597 338.169C871.597 338.169 885.683 335.756 886.871 331.198C888.059 326.64 890.139 318.663 893.325 321.927C896.511 325.192 907.554 329.288 908.445 325.869Z" fill="#2F2E41"/>
<path d="M954.667 246.645C954.667 246.645 971.713 253.524 964.511 275.986C964.511 275.986 981.845 302.41 973.762 307.605C965.679 312.8 948.551 321.721 944.402 316.989C940.253 312.256 931.966 282.105 931.966 282.105C931.966 282.105 893.714 284.302 888.899 276.963C884.084 269.622 881.349 254.305 881.349 254.305L916.712 247.704L954.667 246.645Z" fill="#2F2E41"/>
<path d="M922.459 168.881C930.81 171.058 939.176 166.701 941.144 159.148C943.113 151.596 937.939 143.709 929.589 141.532C921.238 139.355 912.872 143.712 910.904 151.264C908.935 158.817 914.108 166.704 922.459 168.881Z" fill="#9F616A"/>
<path d="M937.067 159.303C937.067 159.303 942.619 174.136 944.842 175.933C947.065 177.73 923.934 183.869 923.934 183.869C923.934 183.869 927.796 169.055 922.387 163.994L937.067 159.303Z" fill="#9F616A"/>
<path d="M935.059 172.165C935.059 172.165 956.705 171.724 958.108 181.826C959.512 191.927 963.876 211.32 959.645 222.387C955.415 233.454 953.488 230.517 956.378 234.922C959.266 239.325 962.38 237.703 959.932 241.933C957.484 246.163 956.224 245.834 956.889 248.442C957.555 251.05 939.095 254.756 924.938 252.282L910.781 249.808C910.781 249.808 916.128 229.296 914.797 224.082C913.465 218.866 910.801 208.436 911.692 205.017L914.05 195.972C915.62 189.951 918.9 184.488 923.565 180.122C923.565 180.122 933.799 171.837 935.059 172.165Z" fill="#2F2E41"/>
<path d="M948.991 180.666C948.991 180.666 994.721 196.238 996.791 208.948C998.859 221.657 995.438 245.105 990.398 243.791C985.358 242.477 978.464 243.113 977.798 240.506C977.132 237.899 978.034 213.794 976.773 213.465C975.513 213.136 938.604 199.864 938.604 199.864C938.604 199.864 926.976 177.36 948.991 180.666Z" fill="#2F2E41"/>
<path d="M926.3 151.658C926.3 151.658 923.932 144.306 917.488 148.476C911.044 152.646 905.509 140.453 907.322 138.632C909.134 136.81 912.972 140.207 921.137 139.943C929.302 139.678 945.094 138.919 943.657 154.449C942.22 169.98 936.802 166.9 936.802 166.9C936.802 166.9 937.573 153.007 934.172 156.169L930.771 159.331L928.557 159.251L926.3 151.658Z" fill="#2F2E41"/>
</g>
<path d="M566.208 330.323C260.095 300.789 61.1891 429.802 0 498H1362C1362 489.452 1202.84 443.949 566.208 330.323Z" fill="#A2C8A1"/>
<defs>
<clipPath id="clip0">
<rect width="555" height="326" fill="white" transform="translate(604 86)"/>
</clipPath>
</defs>
</svg>
