<svg width="1362" height="518" viewBox="0 0 1362 518" fill="none" xmlns="http://www.w3.org/2000/svg">
<ellipse cx="868.542" cy="158" rx="157.304" ry="158" fill="#E6E6E6"/>
<g clip-path="url(#clip0)">
<path d="M888.194 303.293L908.291 276.265L888.235 306.201L888.277 309.242C886.81 309.252 885.357 309.23 883.918 309.176L884.915 270.081L884.888 269.779L884.925 269.721L885.02 266.027L863.011 237.129L884.994 263.262L885.072 264.043L885.825 234.505L866.815 204.544L885.879 229.316L885.68 168.122L885.68 167.918L885.687 168.119L886.949 216.348L904.274 196.757L887.006 220.503L887.384 246.924L903.326 221.138L887.442 250.808L887.653 265.499L910.837 229.58L887.723 270.624L888.194 303.293Z" fill="#A2C8A1"/>
<path d="M768.127 273.478L788.224 246.449L768.168 276.386L768.21 279.427C766.743 279.437 765.29 279.415 763.851 279.36L764.848 240.266L764.821 239.964L767.586 235.684L764.953 236.212L742.944 207.313L764.927 233.447L765.005 234.228L765.758 204.69L746.749 174.729L765.812 199.501L765.613 138.307L765.614 138.103L765.62 138.303L766.882 186.533L784.207 166.942L766.939 190.688L767.317 217.108L783.259 191.323L767.375 220.993L767.586 235.684L790.77 199.765L767.656 240.809L768.127 273.478Z" fill="#A2C8A1"/>
<path d="M967.893 61.0327H847.63V208.147H967.893V61.0327Z" fill="#E6E6E6"/>
<path d="M963.655 66.2167H851.868V202.963H963.655V66.2167Z" fill="white"/>
<path d="M948.961 90.2016H866.92C866.255 90.2008 865.618 89.9615 865.149 89.5363C864.679 89.111 864.416 88.5346 864.416 87.9336C864.416 87.3326 864.679 86.7561 865.149 86.3309C865.618 85.9057 866.255 85.6664 866.92 85.6656H948.961C949.291 85.6652 949.617 85.7236 949.922 85.8374C950.227 85.9512 950.504 86.1182 950.737 86.3288C950.97 86.5394 951.155 86.7896 951.281 87.065C951.408 87.3403 951.473 87.6355 951.473 87.9336C951.473 88.2317 951.408 88.5268 951.281 88.8022C951.155 89.0776 950.97 89.3277 950.737 89.5384C950.504 89.749 950.227 89.916 949.922 90.0298C949.617 90.1436 949.291 90.202 948.961 90.2016Z" fill="#E6E6E6"/>
<path d="M948.961 113.53H866.92C866.255 113.529 865.618 113.289 865.149 112.864C864.679 112.439 864.416 111.863 864.416 111.262C864.416 110.661 864.679 110.084 865.149 109.659C865.618 109.234 866.255 108.994 866.92 108.994H948.961C949.291 108.993 949.617 109.052 949.922 109.165C950.227 109.279 950.504 109.446 950.737 109.657C950.97 109.868 951.155 110.117 951.281 110.393C951.408 110.668 951.473 110.964 951.473 111.262C951.473 111.56 951.408 111.855 951.281 112.13C951.155 112.406 950.97 112.656 950.737 112.867C950.504 113.077 950.227 113.244 949.922 113.358C949.617 113.472 949.291 113.53 948.961 113.53Z" fill="#E6E6E6"/>
<path d="M948.961 136.858H866.92C866.255 136.857 865.618 136.618 865.149 136.192C864.679 135.767 864.416 135.191 864.416 134.59C864.416 133.989 864.679 133.412 865.149 132.987C865.618 132.562 866.255 132.322 866.92 132.322H948.961C949.291 132.321 949.617 132.38 949.922 132.494C950.227 132.607 950.504 132.774 950.737 132.985C950.97 133.196 951.155 133.446 951.281 133.721C951.408 133.996 951.473 134.292 951.473 134.59C951.473 134.888 951.408 135.183 951.281 135.458C951.155 135.734 950.97 135.984 950.737 136.195C950.504 136.405 950.227 136.572 949.922 136.686C949.617 136.8 949.291 136.858 948.961 136.858Z" fill="#E6E6E6"/>
<path d="M948.961 160.186H866.92C866.255 160.185 865.618 159.946 865.149 159.52C864.679 159.095 864.416 158.519 864.416 157.918C864.416 157.317 864.679 156.74 865.149 156.315C865.618 155.89 866.255 155.651 866.92 155.65H948.961C949.291 155.65 949.617 155.708 949.922 155.822C950.227 155.936 950.504 156.102 950.737 156.313C950.97 156.524 951.155 156.774 951.281 157.049C951.408 157.324 951.473 157.62 951.473 157.918C951.473 158.216 951.408 158.511 951.281 158.786C951.155 159.062 950.97 159.312 950.737 159.523C950.504 159.733 950.227 159.9 949.922 160.014C949.617 160.128 949.291 160.186 948.961 160.186Z" fill="#E6E6E6"/>
<path d="M948.961 183.514H866.92C866.255 183.513 865.618 183.274 865.149 182.849C864.679 182.424 864.416 181.847 864.416 181.246C864.416 180.645 864.679 180.068 865.149 179.643C865.618 179.218 866.255 178.979 866.92 178.978H948.961C949.291 178.978 949.617 179.036 949.922 179.15C950.227 179.264 950.504 179.431 950.737 179.641C950.97 179.852 951.155 180.102 951.281 180.377C951.408 180.653 951.473 180.948 951.473 181.246C951.473 181.544 951.408 181.839 951.281 182.114C951.155 182.39 950.97 182.64 950.737 182.851C950.504 183.061 950.227 183.228 949.922 183.342C949.617 183.456 949.291 183.514 948.961 183.514Z" fill="#E6E6E6"/>
<path d="M934.631 90.2016H866.561C866.232 90.202 865.905 90.1436 865.601 90.0298C865.296 89.916 865.019 89.749 864.786 89.5384C864.553 89.3277 864.368 89.0776 864.242 88.8022C864.115 88.5268 864.05 88.2317 864.05 87.9336C864.05 87.6355 864.115 87.3403 864.242 87.065C864.368 86.7896 864.553 86.5394 864.786 86.3288C865.019 86.1182 865.296 85.9512 865.601 85.8374C865.905 85.7236 866.232 85.6652 866.561 85.6656H934.631C935.296 85.6664 935.932 85.9057 936.402 86.3309C936.872 86.7561 937.135 87.3326 937.135 87.9336C937.135 88.5346 936.872 89.111 936.402 89.5363C935.932 89.9615 935.296 90.2008 934.631 90.2016Z" fill="#A1C8C6"/>
<path d="M913.494 113.53H866.562C865.896 113.53 865.259 113.291 864.788 112.865C864.318 112.44 864.054 111.863 864.054 111.262C864.054 110.66 864.318 110.083 864.788 109.658C865.259 109.233 865.896 108.994 866.562 108.994H913.494C913.823 108.993 914.15 109.052 914.455 109.165C914.759 109.279 915.036 109.446 915.269 109.657C915.502 109.868 915.687 110.117 915.814 110.393C915.94 110.668 916.005 110.964 916.005 111.262C916.005 111.56 915.94 111.855 915.814 112.13C915.687 112.406 915.502 112.656 915.269 112.867C915.036 113.077 914.759 113.244 914.455 113.358C914.15 113.472 913.823 113.53 913.494 113.53Z" fill="#A1C8C6"/>
<path d="M887.699 136.858H866.561C866.232 136.858 865.905 136.8 865.601 136.686C865.296 136.572 865.019 136.405 864.786 136.195C864.553 135.984 864.368 135.734 864.242 135.458C864.115 135.183 864.05 134.888 864.05 134.59C864.05 134.292 864.115 133.996 864.242 133.721C864.368 133.446 864.553 133.196 864.786 132.985C865.019 132.774 865.296 132.607 865.601 132.494C865.905 132.38 866.232 132.321 866.561 132.322H887.699C888.363 132.322 889.001 132.562 889.47 132.987C889.94 133.412 890.203 133.989 890.203 134.59C890.203 135.191 889.94 135.767 889.47 136.192C889.001 136.618 888.363 136.857 887.699 136.858Z" fill="#A1C8C6"/>
<path d="M941.08 160.186H866.562C865.896 160.186 865.259 159.947 864.788 159.522C864.318 159.096 864.054 158.519 864.054 157.918C864.054 157.316 864.318 156.74 864.788 156.314C865.259 155.889 865.896 155.65 866.562 155.65H941.08C941.745 155.65 942.383 155.889 942.853 156.314C943.323 156.74 943.588 157.316 943.588 157.918C943.588 158.519 943.323 159.096 942.853 159.522C942.383 159.947 941.745 160.186 941.08 160.186Z" fill="#A1C8C6"/>
<path d="M924.599 183.514H866.561C866.232 183.514 865.905 183.456 865.601 183.342C865.296 183.228 865.019 183.061 864.786 182.851C864.553 182.64 864.368 182.39 864.242 182.114C864.115 181.839 864.05 181.544 864.05 181.246C864.05 180.948 864.115 180.653 864.242 180.377C864.368 180.102 864.553 179.852 864.786 179.641C865.019 179.431 865.296 179.264 865.601 179.15C865.905 179.036 866.232 178.978 866.561 178.978H924.599C924.929 178.978 925.256 179.036 925.56 179.15C925.865 179.264 926.142 179.431 926.375 179.641C926.608 179.852 926.794 180.102 926.919 180.377C927.046 180.653 927.111 180.948 927.111 181.246C927.111 181.544 927.046 181.839 926.919 182.114C926.794 182.39 926.608 182.64 926.375 182.851C926.142 183.061 925.865 183.228 925.56 183.342C925.256 183.456 924.929 183.514 924.599 183.514Z" fill="#A1C8C6"/>
<path d="M804.416 146.544C804.416 146.544 806.334 128.408 800.708 132.024C795.082 135.64 797.607 143.921 797.607 143.921L800.081 148.802L804.209 147.337L804.416 146.544Z" fill="#9F616A"/>
<path d="M813.493 154.84C813.493 154.84 806.997 143.829 804.829 144.957C802.662 146.086 797.193 145.508 797.243 148.909C797.293 152.31 813.022 167.423 813.022 167.423L813.493 154.84Z" fill="#2F2E41"/>
<path d="M863.69 167.079L862.036 173.424C862.036 173.424 859.191 187.929 854.135 185.764C849.08 183.6 854.813 172.388 854.813 172.388L857.551 165.478L863.69 167.079Z" fill="#9F616A"/>
<path d="M849.066 212.396C849.066 212.396 854.064 225.558 856.488 227.037C858.913 228.516 871.084 239.313 870.978 246.909L879.534 264.386L871.534 269.924C871.534 269.924 850.499 235.641 843.226 231.203C835.954 226.766 831.162 212.811 831.162 212.811L849.066 212.396Z" fill="#9F616A"/>
<path d="M791.553 177.92C791.553 177.92 774.269 175.955 774.419 186.159C774.569 196.363 794.833 222.822 794.833 222.822L794.469 227.81L803.703 231.911L809.122 229.089L808.865 226.481C808.865 226.481 800.616 215.012 800.566 211.611C800.516 208.21 794.177 193.004 789.998 191.068L796.965 189.496L791.553 177.92Z" fill="#9F616A"/>
<path d="M876.902 263.7C876.902 263.7 874.635 258.027 879.691 260.192C884.746 262.357 888.047 264.064 887.22 267.237C886.393 270.41 876.218 291.475 871.369 288.517C866.521 285.559 872.767 279.564 872.767 279.564C872.767 279.564 871.79 272.533 870.243 271.282C868.696 270.032 869.729 266.066 871.484 266.523C873.238 266.98 877.366 265.515 876.902 263.7Z" fill="#2F2E41"/>
<path d="M806.905 226.816C806.905 226.816 807.939 222.851 810.413 227.731C812.887 232.611 813.814 236.241 809.686 237.706C805.557 239.171 791.831 241.522 791.831 241.522C791.831 241.522 778.056 240.472 781.257 235.377C781.257 235.377 791.061 233.698 791.888 230.525C792.715 227.353 794.163 221.801 796.38 224.073C798.598 226.345 806.284 229.196 806.905 226.816Z" fill="#2F2E41"/>
<path d="M839.076 171.674C839.076 171.674 850.941 176.461 845.928 192.096C845.928 192.096 857.993 210.488 852.367 214.104C846.741 217.72 834.819 223.929 831.932 220.635C829.044 217.341 823.275 196.355 823.275 196.355C823.275 196.355 796.651 197.884 793.3 192.776C789.949 187.667 788.045 177.005 788.045 177.005L812.658 172.41L839.076 171.674Z" fill="#2F2E41"/>
<path d="M816.659 117.547C822.471 119.062 828.294 116.029 829.664 110.773C831.035 105.516 827.433 100.027 821.621 98.5114C815.809 96.9961 809.986 100.029 808.616 105.285C807.245 110.542 810.846 116.032 816.659 117.547Z" fill="#9F616A"/>
<path d="M826.826 110.88C826.826 110.88 830.691 121.205 832.238 122.456C833.786 123.706 817.685 127.979 817.685 127.979C817.685 127.979 820.373 117.668 816.608 114.146L826.826 110.88Z" fill="#9F616A"/>
<path d="M825.429 119.833C825.429 119.833 840.495 119.526 841.472 126.557C842.449 133.588 845.486 147.086 842.542 154.789C839.597 162.492 838.256 160.448 840.267 163.514C842.278 166.579 844.445 165.45 842.741 168.394C841.037 171.338 840.16 171.109 840.623 172.924C841.087 174.739 828.238 177.319 818.384 175.597L808.53 173.875C808.53 173.875 812.252 159.598 811.325 155.969C810.398 152.339 808.544 145.079 809.164 142.699L810.806 136.404C811.898 132.213 814.181 128.41 817.429 125.371C817.429 125.371 824.552 119.605 825.429 119.833Z" fill="#2F2E41"/>
<path d="M835.126 125.75C835.126 125.75 866.955 136.589 868.396 145.435C869.836 154.281 867.455 170.602 863.947 169.687C860.438 168.772 855.64 169.216 855.176 167.401C854.713 165.586 855.34 148.808 854.463 148.579C853.586 148.35 827.896 139.112 827.896 139.112C827.896 139.112 819.803 123.449 835.126 125.75Z" fill="#2F2E41"/>
<path d="M819.332 105.559C819.332 105.559 817.684 100.442 813.199 103.344C808.714 106.247 804.861 97.7601 806.123 96.4925C807.384 95.2247 810.056 97.5893 815.739 97.4052C821.421 97.2206 832.413 96.6925 831.413 107.502C830.413 118.312 826.642 116.168 826.642 116.168C826.642 116.168 827.179 106.499 824.811 108.699L822.444 110.9L820.903 110.844L819.332 105.559Z" fill="#2F2E41"/>
</g>
<path d="M566.208 167.048C260.095 105.234 61.1891 375.26 0 518H1362C1362 500.108 1202.84 404.87 566.208 167.048Z" fill="#A2C8A1"/>
<path d="M728.739 356.595C259.963 233.121 462.866 283.076 182 514H1230C1219.17 502.689 1103.76 455.374 728.739 356.595Z" fill="#92B791"/>
<defs>
<clipPath id="clip0">
<rect width="386.3" height="226.907" fill="white" transform="translate(595 59.859)"/>
</clipPath>
</defs>
</svg>
