<svg width="975" height="774" viewBox="0 0 975 774" fill="none" xmlns="http://www.w3.org/2000/svg">
<g clip-path="url(#clip0)">
<path d="M520.967 163.958C556.313 163.958 584.967 135.304 584.967 99.9579C584.967 64.6117 556.313 35.9579 520.967 35.9579C485.621 35.9579 456.967 64.6117 456.967 99.9579C456.967 135.304 485.621 163.958 520.967 163.958Z" fill="#FF6584"/>
<path d="M328.263 407.972C328.263 531.582 254.779 574.742 164.132 574.742C73.4842 574.742 0 531.582 0 407.972C0 284.362 164.132 127.11 164.132 127.11C164.132 127.11 328.263 284.362 328.263 407.972Z" fill="#A2C8A1"/>
<path d="M158.153 555.833L159.833 452.383L229.79 324.4L160.097 436.154L160.852 389.639L209.067 297.044L161.052 377.329L162.412 293.669L214.04 219.952L162.625 280.514L163.474 127.11L158.138 330.188L158.576 321.811L106.085 241.464L157.735 337.893L152.844 431.327L152.698 428.847L92.1851 344.294L152.515 437.608L151.903 449.293L151.794 449.469L151.844 450.428L139.435 687.478H156.014L158.003 565.037L218.185 471.952L158.153 555.833Z" fill="#3F3D56"/>
<path d="M814.647 343.122C814.647 494.133 724.873 546.861 614.132 546.861C503.39 546.861 413.616 494.133 413.616 343.122C413.616 192.11 614.132 -6.10352e-05 614.132 -6.10352e-05C614.132 -6.10352e-05 814.647 192.11 814.647 343.122Z" fill="#A2C8A1"/>
<path d="M606.827 523.761L608.88 397.378L694.345 241.024L609.202 377.552L610.126 320.725L669.028 207.605L610.37 305.687L612.03 203.481L675.104 113.423L612.291 187.409L613.329 0L606.809 248.096L607.345 237.861L543.218 139.704L606.317 257.508L600.341 371.654L600.164 368.625L526.236 265.329L599.94 379.328L599.192 393.603L599.059 393.818L599.12 394.99L583.96 684.589H604.214L606.645 535.005L680.167 421.285L606.827 523.761Z" fill="#3F3D56"/>
<path d="M399.967 695.958C570.071 695.958 707.967 691.033 707.967 684.958C707.967 678.883 570.071 673.958 399.967 673.958C229.863 673.958 91.967 678.883 91.967 684.958C91.967 691.033 229.863 695.958 399.967 695.958Z" fill="#3F3D56"/>
<path d="M832.967 773.958C911.391 773.958 974.967 767.914 974.967 760.458C974.967 753.002 911.391 746.958 832.967 746.958C754.543 746.958 690.967 753.002 690.967 760.458C690.967 767.914 754.543 773.958 832.967 773.958Z" fill="#3F3D56"/>
<path d="M417.967 346.958H381.967V684.958H417.967V346.958Z" fill="#2F2E41"/>
<path d="M564.967 423.958H343.967V361.958H564.967L628.967 392.958L564.967 423.958Z" fill="#3F3D56"/>
<path opacity="0.1" d="M564.967 418.958H343.967V423.958H564.967L628.967 392.958L623.806 390.458L564.967 418.958Z" fill="black"/>
<path d="M235.967 505.958H456.967V443.958H235.967L171.967 474.958L235.967 505.958Z" fill="#3F3D56"/>
<path opacity="0.1" d="M177.128 472.458L171.967 474.958L235.967 505.958H456.967V500.958H235.967L177.128 472.458Z" fill="black"/>
<path d="M505.967 373.958H467.967V411.958H505.967V373.958Z" fill="#5F5D7E"/>
<path d="M314.967 493.958C325.46 493.958 333.967 485.451 333.967 474.958C333.967 464.465 325.46 455.958 314.967 455.958C304.474 455.958 295.967 464.465 295.967 474.958C295.967 485.451 304.474 493.958 314.967 493.958Z" fill="#5F5D7E"/>
<path d="M399.967 401.958C406.042 401.958 410.967 397.033 410.967 390.958C410.967 384.883 406.042 379.958 399.967 379.958C393.892 379.958 388.967 384.883 388.967 390.958C388.967 397.033 393.892 401.958 399.967 401.958Z" fill="#2F2E41"/>
<path d="M399.967 483.958C406.042 483.958 410.967 479.033 410.967 472.958C410.967 466.883 406.042 461.958 399.967 461.958C393.892 461.958 388.967 466.883 388.967 472.958C388.967 479.033 393.892 483.958 399.967 483.958Z" fill="#2F2E41"/>
<path d="M325.967 647.294C325.967 669.763 312.611 677.608 296.133 677.608C295.751 677.608 295.37 677.604 294.99 677.595C294.226 677.579 293.47 677.542 292.723 677.491C277.853 676.439 266.299 668.19 266.299 647.294C266.299 625.669 293.934 598.382 296.009 596.362L296.013 596.359C296.093 596.28 296.133 596.242 296.133 596.242C296.133 596.242 325.967 624.825 325.967 647.294Z" fill="#5F5D7E"/>
<path d="M295.046 674.17L305.958 658.924L295.019 675.845L294.99 677.595C294.226 677.579 293.47 677.542 292.723 677.491L293.899 655.012L293.89 654.837L293.91 654.805L294.021 652.682L283.055 635.719L294.055 651.089L294.081 651.54L294.97 634.556L285.581 617.028L295.084 631.575L296.009 596.362L296.013 596.242V596.358L295.859 624.126L305.205 613.118L295.82 626.518L295.573 641.725L304.3 627.13L295.537 643.962L295.399 652.416L308.068 632.104L295.351 655.366L295.046 674.17Z" fill="#3F3D56"/>
<path d="M787.007 735.872C787.007 735.872 772.848 747.795 765.396 747.05C757.944 746.305 743.785 746.305 749.746 754.502C755.708 762.7 780.3 767.171 790.733 767.916C801.166 768.661 824.268 769.407 822.777 764.935C821.287 760.464 819.797 739.598 813.835 738.108C807.873 736.617 787.007 735.872 787.007 735.872Z" fill="#575A89"/>
<path d="M868.273 724.165C868.273 724.165 857.839 739.455 850.461 740.74C843.082 742.026 829.444 745.831 837.39 752.124C845.335 758.418 870.224 756.115 880.474 754.029C890.723 751.943 913.175 746.452 910.538 742.546C907.9 738.64 900.857 718.942 894.714 719.109C888.571 719.275 868.273 724.165 868.273 724.165Z" fill="#575A89"/>
<path d="M778.713 505.496C778.713 505.496 769.122 571.18 771.358 583.103C773.593 595.027 775.084 613.657 775.084 613.657C775.084 613.657 773.593 629.306 775.084 636.758C776.574 644.211 785.517 715.006 785.517 716.496C785.517 717.987 784.026 722.458 785.517 726.184C787.007 729.91 789.988 726.929 785.517 732.891C781.045 738.853 784.026 740.343 784.771 740.343C785.517 740.343 814.58 743.324 816.07 740.343C817.561 737.362 815.325 736.617 816.07 732.891C816.816 729.165 817.561 728.42 819.051 727.675C820.542 726.929 823.523 728.42 821.287 724.694C819.051 720.968 813.835 716.496 815.325 714.261C816.816 712.025 814.58 695.63 814.58 695.63C814.58 695.63 813.09 659.115 812.344 636.758C811.599 614.402 819.051 591.3 819.051 591.3C819.979 609.593 826.773 627.1 838.427 641.23C857.802 664.331 867.49 707.554 867.49 707.554C867.49 707.554 871.961 714.261 869.726 720.222C867.49 726.184 860.783 722.458 867.49 726.184C874.197 729.91 897.299 724.694 899.534 722.458C901.77 720.222 896.554 717.242 898.044 711.28C899.534 705.318 905.496 706.809 900.28 703.828C895.063 700.847 893.573 701.592 893.573 698.611C893.573 695.63 880.159 630.797 859.293 612.166L857.802 544.352C857.802 544.352 876.433 496.658 857.057 492.187C837.682 487.716 778.713 505.496 778.713 505.496Z" fill="#2F2E41"/>
<path d="M792.224 328.985C792.224 328.985 804.892 360.284 801.911 364.756C798.931 369.227 838.427 349.851 838.427 349.851C838.427 349.851 825.758 318.552 825.758 314.826C825.758 311.1 792.224 328.985 792.224 328.985Z" fill="#A0616A"/>
<path d="M801.539 336.81C816.767 336.81 829.112 324.465 829.112 309.237C829.112 294.009 816.767 281.664 801.539 281.664C786.311 281.664 773.966 294.009 773.966 309.237C773.966 324.465 786.311 336.81 801.539 336.81Z" fill="#A0616A"/>
<path d="M838.427 337.183C838.427 337.183 819.051 334.947 809.363 346.87C799.676 358.794 798.185 361.775 798.185 361.775C798.185 361.775 775.084 399.035 779.555 417.666C780.645 419.348 781.64 421.089 782.536 422.882C784.026 425.863 784.026 467.595 782.536 474.302C781.045 481.009 779.555 483.245 781.045 492.932C782.536 502.62 769.122 518.27 784.771 521.25C800.421 524.231 812.344 521.996 817.561 515.289C822.777 508.582 818.306 504.111 834.701 504.111C851.095 504.111 861.528 492.932 861.528 492.932C861.528 492.932 853.331 483.99 856.312 482.499C859.293 481.009 856.312 477.283 854.822 473.557C853.331 469.831 853.331 466.85 855.567 466.85C857.802 466.85 856.312 465.359 854.822 461.633C853.331 457.907 880.904 393.819 864.509 375.189C848.115 356.558 839.917 346.125 839.917 346.125C839.917 346.125 842.898 334.947 838.427 337.183Z" fill="#5F5D7E"/>
<path d="M795.95 407.978V440.767L772.103 519.76C772.103 519.76 756.453 560.747 772.103 560.747C787.752 560.747 786.914 521.626 786.914 521.626L820.542 462.379C820.542 462.379 833.956 415.43 832.465 411.704C830.975 407.978 795.95 407.978 795.95 407.978Z" fill="#A0616A"/>
<path d="M808.618 359.539C808.618 359.539 786.262 368.482 792.224 392.328C798.185 416.175 792.224 415.43 792.224 415.43C792.224 415.43 822.777 412.449 832.465 419.156L834.701 410.214C834.701 410.214 843.643 358.794 808.618 359.539Z" fill="#5F5D7E"/>
<path d="M792.124 288.538C790.403 289.148 788.557 289.321 786.753 289.04C784.949 288.759 783.243 288.034 781.79 286.93C778.981 284.615 777.789 280.345 779.442 277.102C780.868 274.302 783.92 272.765 786.847 271.619C793.303 269.094 800.103 267.559 807.018 267.065C810.314 266.83 813.777 266.868 816.719 268.374C818.174 269.119 819.439 270.194 820.88 270.966C823.531 272.385 826.616 272.701 829.48 273.614C832.411 274.57 835.102 276.145 837.372 278.231C839.641 280.317 841.437 282.867 842.636 285.707C843.414 287.635 843.958 289.651 844.256 291.709C845.113 297.346 844.514 303.107 842.517 308.447C839.34 316.905 832.678 324.299 832.302 333.326C828.224 330.367 826.712 325.028 823.444 321.193C821.013 318.359 817.692 316.433 814.025 315.73C813.01 315.668 812.034 315.312 811.217 314.706C810.648 314.026 810.292 313.194 810.192 312.314L807.402 299.14C806.834 296.459 806.116 293.535 803.912 291.906C802.54 291.028 800.984 290.48 799.365 290.304C795.517 289.632 791.621 289.276 787.715 289.242" fill="#2F2E41"/>
</g>
<defs>
<clipPath id="clip0">
<rect width="974.967" height="773.958" fill="white"/>
</clipPath>
</defs>
</svg>
