<svg width="855" height="686" viewBox="0 0 855 686" fill="none" xmlns="http://www.w3.org/2000/svg">
<g clip-path="url(#clip0)">
<path d="M821 600H0V609.053H821V600Z" fill="#3F3D56"/>
<path d="M821 676.947H0V686H821V676.947Z" fill="#3F3D56"/>
<path d="M750.178 608.328C749.687 607.526 738.118 588.208 734.107 548.094C730.428 511.292 732.794 449.258 764.965 362.727C825.913 198.799 750.919 66.5329 750.153 65.2154L753.853 63.069C754.047 63.403 773.398 97.1257 784.83 150.824C799.934 222.016 794.434 296.039 768.974 364.218C708.131 527.866 753.364 605.336 753.828 606.1L750.178 608.328Z" fill="#3F3D56"/>
<path d="M726.346 55.5899C741.697 55.5899 754.141 43.1457 754.141 27.795C754.141 12.4442 741.697 0 726.346 0C710.995 0 698.551 12.4442 698.551 27.795C698.551 43.1457 710.995 55.5899 726.346 55.5899Z" fill="#3F3D56"/>
<path d="M814.007 158.217C829.358 158.217 841.802 145.773 841.802 130.422C841.802 115.072 829.358 102.627 814.007 102.627C798.656 102.627 786.212 115.072 786.212 130.422C786.212 145.773 798.656 158.217 814.007 158.217Z" fill="#3F3D56"/>
<path d="M754.141 226.636C769.492 226.636 781.936 214.191 781.936 198.841C781.936 183.49 769.492 171.046 754.141 171.046C738.79 171.046 726.346 183.49 726.346 198.841C726.346 214.191 738.79 226.636 754.141 226.636Z" fill="#C8B4A1"/>
<path d="M826.835 284.364C842.186 284.364 854.63 271.919 854.63 256.569C854.63 241.218 842.186 228.774 826.835 228.774C811.485 228.774 799.04 241.218 799.04 256.569C799.04 271.919 811.485 284.364 826.835 284.364Z" fill="#C8B4A1"/>
<path d="M732.76 374.163C748.111 374.163 760.555 361.719 760.555 346.368C760.555 331.017 748.111 318.573 732.76 318.573C717.409 318.573 704.965 331.017 704.965 346.368C704.965 361.719 717.409 374.163 732.76 374.163Z" fill="#3F3D56"/>
<path d="M766.969 609.351C766.969 609.351 739.174 540.932 822.559 489.619L766.969 609.351Z" fill="#3F3D56"/>
<path d="M732.786 608.11C732.786 608.11 720.136 535.353 622.229 535.976L732.786 608.11Z" fill="#3F3D56"/>
<path d="M136.5 428.5C159.144 428.5 177.5 410.144 177.5 387.5C177.5 364.856 159.144 346.5 136.5 346.5C113.856 346.5 95.5 364.856 95.5 387.5C95.5 410.144 113.856 428.5 136.5 428.5Z" fill="#A0616A"/>
<path d="M143.928 336.504C136.087 334.579 127.656 334.257 120.06 336.993C112.236 339.811 105.797 345.702 101.06 352.536C96.3234 359.371 93.1423 367.149 90.2928 374.961C88.6308 379.22 87.3444 383.617 86.4483 388.1C85.4264 394.077 85.6231 400.198 87.0266 406.097C88.43 411.996 91.0112 417.55 94.6152 422.426C93.4145 419.26 96.4374 415.809 99.753 415.123C103.069 414.438 106.446 415.597 109.716 416.476C115.477 418.021 121.433 418.722 127.396 418.554C129.68 418.489 132.075 418.259 133.974 416.989C139.926 413.009 136.776 402.726 141.728 397.555C143.495 395.71 146.017 394.847 148.295 393.69C156.496 389.523 161.899 381.114 164.451 372.277C166.05 366.738 170.018 350.827 166.636 345.679C163.579 341.026 149.12 337.779 143.928 336.504Z" fill="#2F2E41"/>
<path d="M248.066 342.291C245.038 341.227 241.829 340.772 238.624 340.951C235.419 341.129 232.281 341.939 229.389 343.332C218.694 348.348 199.781 360.499 200.5 383.5C201.5 415.5 212.5 436.5 212.5 436.5L210.5 501.5L200.5 619.5C200.5 619.5 151.5 659.5 170.5 669.5C189.5 679.5 221.5 621.5 221.5 621.5L246.5 554.5L255.5 489.5C255.5 489.5 270.5 421.5 255.5 391.5C255.5 391.5 272.828 351.33 248.066 342.291Z" fill="#A0616A"/>
<path d="M367.5 445.5C367.5 445.5 350.5 517.5 410.5 537.5C470.5 557.5 549.5 591.5 549.5 591.5L559.5 608.5L582.5 577.5L578.5 553.5L539.5 542.5C539.5 542.5 466.5 486.5 434.5 482.5L438.5 445.5H367.5Z" fill="#A0616A"/>
<path d="M527.307 387.717L548.5 422.5C548.5 422.5 618.5 462.5 636.5 489.5C654.5 516.5 697.5 545.5 697.5 545.5L678.5 590.5C678.5 590.5 624.5 527.5 601.5 521.5C578.5 515.5 476.5 433.5 476.5 433.5L527.307 387.717Z" fill="#A0616A"/>
<path d="M338.568 265.819C330.763 267.045 322.951 268.273 315.239 269.993C297.321 273.988 280.091 280.609 263.272 287.967C239.734 298.266 216.873 310.045 194.825 323.234C188.879 326.63 183.205 330.482 177.856 334.757C174.296 337.721 170.945 341.12 169.035 345.341C167.823 348.288 167.039 351.393 166.706 354.562C165.155 365.682 165.228 377.157 168.24 387.972C171.253 398.788 177.364 408.927 186.359 415.646C188.739 417.482 191.382 418.947 194.2 419.994C197.99 421.15 201.914 421.808 205.874 421.951C218.491 422.954 231.672 423.874 243.348 418.987C250.768 415.882 257.049 410.633 263.876 406.38C292.789 388.372 329.522 389.139 361.137 376.46C364.21 375.227 367.34 373.79 369.49 371.271C371.117 369.112 372.343 366.677 373.11 364.084C377.107 353.021 381.104 341.959 385.101 330.896C387.633 323.887 390.167 316.873 392.293 309.729C394.517 302.257 396.289 294.66 398.059 287.068C399.583 280.534 401.152 273.692 400.566 266.938C399.702 256.976 397.4 256.571 388.25 258.013C371.691 260.623 355.13 263.225 338.568 265.819Z" fill="#C8B4A1"/>
<path d="M218.066 342.291C215.038 341.227 211.829 340.772 208.624 340.951C205.419 341.129 202.281 341.939 199.389 343.332C188.694 348.348 169.781 360.499 170.5 383.5C171.5 415.5 182.5 436.5 182.5 436.5L180.5 501.5L170.5 619.5C170.5 619.5 121.5 659.5 140.5 669.5C159.5 679.5 191.5 621.5 191.5 621.5L216.5 554.5L225.5 489.5C225.5 489.5 240.5 421.5 225.5 391.5C225.5 391.5 242.828 351.33 218.066 342.291Z" fill="#A0616A"/>
<path d="M391.66 257.544C391.66 257.544 480.5 249.5 476.5 304.5C472.5 359.5 442.5 454.5 442.5 454.5L365.5 458.5C365.5 458.5 355.5 393.5 369.5 371.5L391.66 257.544Z" fill="#2F2E41"/>
<path d="M453.5 275.5C453.5 275.5 475.5 289.5 487.5 317.5C499.5 345.5 535.5 400.5 535.5 400.5L476.5 442.5L432.5 397.5L453.5 275.5Z" fill="#2F2E41"/>
<path d="M559.5 587.5C559.5 587.5 540.5 594.5 553.5 608.5C561.485 617.187 568.217 626.949 573.5 637.5C573.5 637.5 569.5 663.5 586.5 662.5C603.5 661.5 610.5 626.5 606.5 614.5C602.5 602.5 597.5 545.5 597.5 545.5C597.5 545.5 562.5 548.5 563.5 553.5C564.5 558.5 569.5 583.5 559.5 587.5Z" fill="#2F2E41"/>
<path d="M678.5 567.5C678.5 567.5 660.5 576.5 665.5 584.5C670.5 592.5 686.5 615.5 686.5 615.5C686.5 615.5 680.5 645.5 697.5 648.5C714.5 651.5 724.5 612.5 721.5 604.5C718.5 596.5 718.5 565.5 718.5 565.5C718.5 565.5 719.5 534.5 709.5 534.5C699.5 534.5 682.5 538.5 682.5 538.5C682.5 538.5 686.5 566.5 678.5 567.5Z" fill="#2F2E41"/>
<path d="M125 617.871H96V668.483H125V617.871Z" fill="#C8B4A1"/>
</g>
<defs>
<clipPath id="clip0">
<rect width="854.63" height="686" fill="white"/>
</clipPath>
</defs>
</svg>
